<svg width="46" height="19" viewBox="0 0 46 19" fill="none" xmlns="http://www.w3.org/2000/svg">
<path d="M16.775 9.5C16.775 10.2031 16.1891 10.7891 15.525 10.7891H9.9V16.4141C9.9 17.0781 9.31406 17.625 8.65 17.625C7.94688 17.625 7.4 17.0781 7.4 16.4141V10.7891H1.775C1.07188 10.7891 0.525 10.2031 0.525 9.5C0.525 8.83594 1.07188 8.28906 1.775 8.28906H7.4V2.66406C7.4 1.96094 7.94688 1.375 8.65 1.375C9.31406 1.375 9.9 1.96094 9.9 2.66406V8.28906H15.525C16.1891 8.25 16.775 8.83594 16.775 9.5ZM43.2 0.75C43.8641 0.75 44.45 1.33594 44.45 2C44.45 2.70312 43.8641 3.25 43.2 3.25H28.825C28.4734 3.25 28.2 3.5625 28.2 3.875C28.2 4.22656 28.4734 4.5 28.825 4.5H43.2C44.5672 4.5 45.7 5.63281 45.7 7V15.75C45.7 17.1562 44.5672 18.25 43.2 18.25H28.2C26.7938 18.25 25.7 17.1562 25.7 15.75V3.25C25.7 1.88281 26.7938 0.75 28.2 0.75H43.2ZM41.95 12.625C42.6141 12.625 43.2 12.0781 43.2 11.375C43.2 10.7109 42.6141 10.125 41.95 10.125C41.2469 10.125 40.7 10.7109 40.7 11.375C40.7 12.0781 41.2469 12.625 41.95 12.625Z" fill="#00B0AE"/>
</svg>
