<svg width="14" height="13" viewBox="0 0 14 13" fill="none" xmlns="http://www.w3.org/2000/svg">
<path d="M0.65625 0.625C1.01172 0.625 1.3125 0.925781 1.3125 1.28125V10.9062C1.3125 11.2891 1.58594 11.5625 1.96875 11.5625H13.3438C13.6992 11.5625 14 11.8633 14 12.2188C14 12.6016 13.6992 12.875 13.3438 12.875H1.96875C0.875 12.875 0 12 0 10.9062V1.28125C0 0.925781 0.273438 0.625 0.65625 0.625ZM4.59375 5.875C4.94922 5.875 5.25 6.17578 5.25 6.53125V8.71875C5.25 9.10156 4.94922 9.375 4.59375 9.375C4.21094 9.375 3.9375 9.10156 3.9375 8.71875V6.53125C3.9375 6.17578 4.21094 5.875 4.59375 5.875ZM7.875 8.71875C7.875 9.10156 7.57422 9.375 7.21875 9.375C6.83594 9.375 6.5625 9.10156 6.5625 8.71875V3.90625C6.5625 3.55078 6.83594 3.25 7.21875 3.25C7.57422 3.25 7.875 3.55078 7.875 3.90625V8.71875ZM9.84375 5C10.1992 5 10.5 5.30078 10.5 5.65625V8.71875C10.5 9.10156 10.1992 9.375 9.84375 9.375C9.46094 9.375 9.1875 9.10156 9.1875 8.71875V5.65625C9.1875 5.30078 9.46094 5 9.84375 5ZM13.125 8.71875C13.125 9.10156 12.8242 9.375 12.4688 9.375C12.0859 9.375 11.8125 9.10156 11.8125 8.71875V2.15625C11.8125 1.80078 12.0859 1.5 12.4688 1.5C12.8242 1.5 13.125 1.80078 13.125 2.15625V8.71875Z" fill="#131231"/>
</svg>
