<svg width="23" height="16" viewBox="0 0 23 16" fill="none" xmlns="http://www.w3.org/2000/svg">
<path d="M1.34961 7C0.797325 7 0.349609 7.44772 0.349609 8C0.349609 8.55228 0.797325 9 1.34961 9V7ZM22.0412 8.70711C22.4317 8.31658 22.4317 7.68342 22.0412 7.29289L15.6772 0.928932C15.2867 0.538408 14.6535 0.538408 14.263 0.928932C13.8725 1.31946 13.8725 1.95262 14.263 2.34315L19.9199 8L14.263 13.6569C13.8725 14.0474 13.8725 14.6805 14.263 15.0711C14.6535 15.4616 15.2867 15.4616 15.6772 15.0711L22.0412 8.70711ZM1.34961 9H21.3341V7H1.34961V9Z" fill="black"/>
</svg>
