<svg width="23" height="16" viewBox="0 0 23 16" fill="none" xmlns="http://www.w3.org/2000/svg">
<path d="M21.4873 9C22.0396 9 22.4873 8.55228 22.4873 8C22.4873 7.44772 22.0396 7 21.4873 7V9ZM0.795714 7.29289C0.40519 7.68342 0.40519 8.31658 0.795714 8.70711L7.15968 15.0711C7.5502 15.4616 8.18336 15.4616 8.57389 15.0711C8.96441 14.6805 8.96441 14.0474 8.57389 13.6569L2.91703 8L8.57389 2.34315C8.96441 1.95262 8.96441 1.31946 8.57389 0.928932C8.18336 0.538408 7.5502 0.538408 7.15968 0.928932L0.795714 7.29289ZM21.4873 7L1.50282 7V9L21.4873 9V7Z" fill="black"/>
</svg>
