<svg width="14" height="15" viewBox="0 0 14 15" fill="none" xmlns="http://www.w3.org/2000/svg">
<path d="M7.54688 7.06641C7.71094 7.09375 7.98438 7.14844 8.12109 7.17578C8.39453 7.25781 8.58594 7.55859 8.50391 7.85938C8.42188 8.13281 8.12109 8.32422 7.82031 8.24219C7.73828 8.21484 7.35547 8.13281 7.24609 8.10547C6.89062 8.07812 6.61719 8.10547 6.45312 8.1875C6.28906 8.26953 6.23438 8.35156 6.23438 8.40625C6.20703 8.51562 6.23438 8.54297 6.23438 8.54297C6.23438 8.57031 6.26172 8.59766 6.34375 8.65234C6.50781 8.76172 6.75391 8.84375 7.13672 8.95312H7.16406C7.49219 9.0625 7.95703 9.19922 8.28516 9.44531C8.44922 9.58203 8.64062 9.74609 8.75 9.99219C8.85938 10.2383 8.85938 10.5117 8.83203 10.8125C8.72266 11.332 8.39453 11.6875 7.95703 11.8516C7.82031 11.9062 7.68359 11.9609 7.54688 11.9883V12.125C7.54688 12.4531 7.30078 12.6992 6.97266 12.6992C6.67188 12.6992 6.42578 12.4531 6.42578 12.125V11.9609C6.17969 11.9062 5.82422 11.7969 5.63281 11.7148C5.57812 11.6875 5.52344 11.6875 5.49609 11.6602C5.22266 11.5781 5.05859 11.2773 5.16797 10.9766C5.25 10.7031 5.55078 10.5391 5.85156 10.6211C5.90625 10.6484 5.96094 10.6758 6.01562 10.7031C6.28906 10.7852 6.5625 10.8672 6.72656 10.8945C7.08203 10.9492 7.35547 10.9219 7.51953 10.8672C7.68359 10.7852 7.73828 10.7031 7.73828 10.6211C7.76562 10.5117 7.73828 10.457 7.73828 10.4297C7.73828 10.4023 7.71094 10.375 7.62891 10.3203C7.46484 10.2109 7.21875 10.1289 6.83594 9.99219H6.78125C6.45312 9.88281 6.04297 9.77344 5.71484 9.55469C5.55078 9.41797 5.35938 9.25391 5.25 9.00781C5.14062 8.76172 5.11328 8.48828 5.14062 8.21484C5.25 7.72266 5.60547 7.36719 6.01562 7.20312C6.125 7.12109 6.28906 7.09375 6.42578 7.03906V6.875C6.42578 6.57422 6.67188 6.32812 7 6.32812C7.30078 6.32812 7.54688 6.57422 7.54688 6.875V7.06641ZM4.89453 4.05859L3.30859 1.78906C3.00781 1.35156 3.33594 0.75 3.85547 0.75H10.1172C10.6367 0.75 10.9648 1.35156 10.6641 1.78906L9.07812 4.05859C9.32422 4.19531 9.57031 4.38672 9.87109 4.57812C11.5391 5.83594 14 8.26953 14 12.125C14 13.5742 12.8242 14.75 11.375 14.75H2.625C1.14844 14.75 0 13.5742 0 12.125C0 8.26953 2.43359 5.83594 4.10156 4.57812C4.40234 4.38672 4.64844 4.19531 4.89453 4.05859ZM5.57812 5.15234C4.10156 6.10938 1.3125 8.32422 1.3125 12.125C1.3125 12.8633 1.88672 13.4375 2.625 13.4375H11.375C12.0859 13.4375 12.6875 12.8633 12.6875 12.125C12.6875 8.32422 9.87109 6.10938 8.39453 5.15234L8.01172 4.90625H5.96094L5.57812 5.15234ZM7.79297 3.59375L8.85938 2.0625H5.11328L6.17969 3.59375H7.79297Z" fill="#131231"/>
</svg>
