<svg width="727" height="426" viewBox="0 0 727 426" fill="none" xmlns="http://www.w3.org/2000/svg">
<rect x="52" y="74" width="675" height="327" rx="4" fill="url(#paint0_linear_2_2)"/>
<rect x="499" y="74" width="228" height="327" fill="url(#paint1_linear_2_2)"/>
<line x1="498.6" y1="74" x2="498.6" y2="401" stroke="#3288B9" stroke-width="1.2"/>
<path d="M422 333V325L427 328.733L422 333Z" fill="#254C63"/>
<path d="M424.847 292.62C424.847 292.213 424.703 291.9 424.416 291.68C424.132 291.46 423.618 291.238 422.873 291.014C422.128 290.789 421.536 290.54 421.096 290.265C420.254 289.736 419.833 289.046 419.833 288.195C419.833 287.451 420.135 286.837 420.74 286.354C421.35 285.872 422.139 285.631 423.108 285.631C423.751 285.631 424.325 285.749 424.828 285.986C425.332 286.223 425.727 286.562 426.015 287.002C426.303 287.438 426.447 287.922 426.447 288.456H424.847C424.847 287.973 424.695 287.597 424.39 287.326C424.09 287.051 423.658 286.913 423.095 286.913C422.57 286.913 422.162 287.025 421.87 287.25C421.582 287.474 421.438 287.787 421.438 288.189C421.438 288.528 421.595 288.811 421.908 289.04C422.221 289.264 422.738 289.484 423.457 289.7C424.176 289.911 424.754 290.155 425.19 290.43C425.626 290.701 425.945 291.014 426.148 291.369C426.352 291.72 426.453 292.133 426.453 292.607C426.453 293.377 426.157 293.991 425.564 294.448C424.976 294.901 424.176 295.127 423.165 295.127C422.496 295.127 421.881 295.004 421.318 294.759C420.759 294.509 420.323 294.166 420.01 293.73C419.701 293.295 419.547 292.787 419.547 292.207H421.153C421.153 292.732 421.326 293.138 421.673 293.426C422.02 293.714 422.518 293.857 423.165 293.857C423.724 293.857 424.143 293.745 424.422 293.521C424.705 293.292 424.847 292.992 424.847 292.62Z" fill="#254C63"/>
<path d="M440.051 294.796L436.544 293.343L435.455 295.97L439.555 297.668L439.064 298.853L433.481 296.541L437.018 288.002L442.56 290.297L442.064 291.494L438.006 289.813L437.029 292.17L440.536 293.623L440.051 294.796Z" fill="#254C63"/>
<path d="M451.841 303.926L449.157 301.242L447.146 303.252L450.283 306.39L449.377 307.297L445.103 303.024L451.639 296.488L455.88 300.73L454.965 301.646L451.859 298.54L450.054 300.344L452.738 303.028L451.841 303.926Z" fill="#254C63"/>
<path d="M457 332.656V331.057H461.107V326.924H457V325.318H466.242V326.924H462.396V331.057H466.242V332.656H457Z" fill="#254C63"/>
<path d="M456.898 347.445C456.062 347.099 455.387 346.65 454.873 346.098C454.363 345.548 454.05 344.933 453.934 344.252C453.819 343.577 453.907 342.89 454.197 342.19C454.484 341.498 454.908 340.95 455.469 340.546C456.033 340.147 456.689 339.929 457.437 339.891C458.184 339.857 458.967 340.007 459.786 340.342L460.267 340.541C461.099 340.886 461.774 341.337 462.29 341.894C462.804 342.455 463.118 343.073 463.232 343.748C463.349 344.428 463.263 345.117 462.975 345.812C462.687 346.508 462.264 347.054 461.706 347.451C461.15 347.853 460.496 348.07 459.745 348.102C458.998 348.136 458.208 347.983 457.373 347.642L456.898 347.445ZM457.959 346.146C458.905 346.538 459.705 346.659 460.358 346.508C461.01 346.361 461.471 345.959 461.743 345.302C462.009 344.661 461.965 344.054 461.611 343.482C461.26 342.915 460.626 342.437 459.711 342.049L459.218 341.845C458.28 341.456 457.479 341.337 456.817 341.489C456.152 341.644 455.686 342.046 455.417 342.695C455.145 343.352 455.186 343.96 455.541 344.519C455.894 345.082 456.551 345.563 457.513 345.962L457.959 346.146Z" fill="#254C63"/>
<path d="M446.74 356.574L450.654 362.499L449.527 363.625L444.5 355.582L445.586 354.496L451.601 358.023L448.1 351.982L449.191 350.891L457.234 355.918L456.107 357.045L450.183 353.149L453.845 359.307L452.894 360.259L446.74 356.574Z" fill="#254C63"/>
<path d="M422.2 363H423.8V372.242H422.2V363Z" fill="#254C63"/>
<path d="M403.56 366.351L406.223 367.454L409.264 360.111L410.736 360.721L407.695 368.063L410.334 369.156L409.838 370.353L403.065 367.547L403.56 366.351Z" fill="#254C63"/>
<path d="M388.445 340.382L381.474 341.73L380.864 340.258L390.219 338.692L390.807 340.111L385.246 344.318L392.167 343.395L392.757 344.82L385.035 350.328L384.425 348.856L390.292 344.873L383.201 345.9L382.686 344.657L388.445 340.382Z" fill="#254C63"/>
<path d="M384.62 325.172C385.526 325.172 386.321 325.329 387.007 325.642C387.688 325.955 388.213 326.404 388.581 326.988C388.945 327.568 389.127 328.236 389.127 328.994C389.127 329.743 388.945 330.411 388.581 331C388.213 331.583 387.69 332.036 387.013 332.358C386.336 332.675 385.555 332.836 384.671 332.84H384.15C383.249 332.84 382.453 332.682 381.764 332.364C381.074 332.043 380.547 331.592 380.183 331.012C379.815 330.428 379.631 329.76 379.631 329.006C379.631 328.253 379.813 327.587 380.177 327.007C380.536 326.423 381.057 325.972 381.738 325.655C382.415 325.337 383.205 325.177 384.106 325.172H384.62ZM384.138 326.778C383.114 326.778 382.329 326.973 381.783 327.362C381.237 327.747 380.964 328.295 380.964 329.006C380.964 329.7 381.237 330.244 381.783 330.638C382.324 331.027 383.092 331.226 384.087 331.234H384.62C385.636 331.234 386.421 331.038 386.975 330.644C387.529 330.246 387.807 329.696 387.807 328.994C387.807 328.283 387.536 327.737 386.994 327.356C386.452 326.971 385.661 326.778 384.62 326.778H384.138Z" fill="#254C63"/>
<path d="M388.497 314.146L387.812 315.8L391.102 317.163L390.488 318.647L381.949 315.11L383.193 312.107C383.601 311.122 384.137 310.453 384.8 310.1C385.464 309.748 386.214 309.745 387.051 310.091C387.622 310.328 388.043 310.665 388.315 311.103C388.585 311.535 388.721 312.041 388.725 312.619L393.079 312.176L393.155 312.208L392.497 313.797L388.497 314.146ZM386.622 315.307L387.253 313.782C387.461 313.282 387.497 312.839 387.364 312.454C387.226 312.067 386.939 311.783 386.501 311.602C386.043 311.412 385.635 311.397 385.276 311.555C384.919 311.709 384.63 312.043 384.408 312.556L383.76 314.122L386.622 315.307Z" fill="#254C63"/>
<path d="M395.949 302.325L395.994 303.851L398.032 305.889L396.896 307.024L390.361 300.489L391.497 299.353L394.562 302.419L394.414 301.014L394.037 296.813L395.411 295.439L395.878 300.763L402.085 301.835L400.739 303.182L395.949 302.325Z" fill="#254C63"/>
<path d="M410.785 294.682C410.63 294.307 410.377 294.073 410.027 293.979C409.681 293.885 409.12 293.876 408.347 293.954C407.573 294.032 406.93 294.028 406.418 293.942C405.437 293.776 404.784 293.3 404.459 292.514C404.174 291.826 404.219 291.143 404.593 290.466C404.971 289.787 405.608 289.262 406.504 288.891C407.098 288.645 407.673 288.535 408.229 288.561C408.785 288.587 409.28 288.749 409.714 289.045C410.147 289.338 410.465 289.73 410.669 290.223L409.191 290.835C409.007 290.389 408.722 290.1 408.337 289.966C407.954 289.827 407.503 289.865 406.983 290.08C406.498 290.281 406.163 290.541 405.979 290.86C405.799 291.177 405.786 291.522 405.94 291.893C406.07 292.206 406.323 292.408 406.7 292.499C407.075 292.587 407.636 292.592 408.383 292.517C409.129 292.437 409.756 292.44 410.264 292.528C410.77 292.611 411.185 292.778 411.509 293.029C411.831 293.276 412.082 293.618 412.264 294.056C412.559 294.767 412.52 295.448 412.147 296.097C411.777 296.74 411.125 297.255 410.19 297.642C409.573 297.898 408.957 298.02 408.343 298.009C407.731 297.992 407.197 297.842 406.741 297.559C406.289 297.275 405.952 296.865 405.73 296.329L407.214 295.715C407.415 296.2 407.731 296.508 408.161 296.642C408.592 296.775 409.106 296.717 409.705 296.469C410.221 296.256 410.565 295.992 410.737 295.678C410.912 295.358 410.927 295.026 410.785 294.682Z" fill="#254C63"/>
<circle cx="438" cy="366" r="2" fill="#254C63"/>
<circle cx="459" cy="312" r="2" fill="#254C63"/>
<circle cx="395" cy="358" r="2" fill="#254C63"/>
<g filter="url(#filter0_d_2_2)">
<rect x="627" y="134" width="55" height="55" rx="20" fill="#F9FDFF"/>
</g>
<path d="M654 150C647.938 150 643 154.938 643 161C643 167.062 647.938 172 654 172C660.062 172 665 167.062 665 161C665 154.938 660.062 150 654 150ZM654 170.044C649.013 170.044 644.956 165.987 644.956 161C644.956 156.013 649.013 151.956 654 151.956C658.987 151.956 663.044 156.013 663.044 161C663.044 165.987 658.987 170.044 654 170.044Z" fill="#84848D"/>
<path d="M653.996 156.307C654.671 156.307 655.218 155.76 655.218 155.085C655.218 154.41 654.671 153.862 653.996 153.862C653.321 153.862 652.773 154.41 652.773 155.085C652.773 155.76 653.321 156.307 653.996 156.307Z" fill="#84848D"/>
<path d="M654 158.14C653.462 158.14 653.022 158.58 653.022 159.118V167.184C653.022 167.722 653.462 168.162 654 168.162C654.538 168.162 654.978 167.722 654.978 167.184V159.118C654.978 158.555 654.538 158.14 654 158.14Z" fill="#84848D"/>
<g filter="url(#filter1_d_2_2)">
<rect x="627" y="284" width="55" height="55" rx="20" fill="#F9FDFF"/>
</g>
<path d="M654.996 318.338C655.589 318.338 656.07 317.857 656.07 317.264C656.07 316.67 655.589 316.189 654.996 316.189C654.403 316.189 653.922 316.67 653.922 317.264C653.922 317.857 654.403 318.338 654.996 318.338Z" fill="#84848D"/>
<path d="M655 301C648.921 301 644 305.92 644 312C644 318.079 648.92 323 655 323C661.079 323 666 318.08 666 312C666 305.921 661.08 301 655 301ZM655 321.281C649.871 321.281 645.719 317.13 645.719 312C645.719 306.871 649.87 302.719 655 302.719C660.129 302.719 664.281 306.87 664.281 312C664.281 317.129 660.13 321.281 655 321.281Z" fill="#84848D"/>
<path d="M655 306.521C653.105 306.521 651.562 308.064 651.562 309.959C651.562 310.434 651.947 310.818 652.422 310.818C652.897 310.818 653.281 310.434 653.281 309.959C653.281 309.011 654.052 308.24 655 308.24C655.948 308.24 656.719 309.011 656.719 309.959C656.719 310.907 655.948 311.678 655 311.678C654.525 311.678 654.141 312.062 654.141 312.537V314.686C654.141 315.16 654.525 315.545 655 315.545C655.475 315.545 655.859 315.16 655.859 314.686V313.288C657.34 312.905 658.438 311.558 658.438 309.959C658.438 308.064 656.895 306.521 655 306.521Z" fill="#84848D"/>
<g filter="url(#filter2_d_2_2)">
<rect x="544" y="134" width="55" height="55" rx="20" fill="#F9FDFF"/>
</g>
<path d="M581.141 163.208C581.615 163.208 582 162.824 582 162.349V157.359C582 155.464 580.458 153.922 578.562 153.922H563.438C561.542 153.922 560 155.464 560 157.359V166.641C560 168.536 561.542 170.078 563.438 170.078H578.562C580.458 170.078 582 168.536 582 166.641C582 166.166 581.615 165.781 581.141 165.781C580.666 165.781 580.281 166.166 580.281 166.641C580.281 167.588 579.51 168.359 578.562 168.359H563.438C562.49 168.359 561.719 167.588 561.719 166.641V160.201H580.281V162.349C580.281 162.824 580.666 163.208 581.141 163.208ZM561.719 158.482V157.359C561.719 156.412 562.49 155.641 563.438 155.641H578.562C579.51 155.641 580.281 156.412 580.281 157.359V158.482H561.719Z" fill="#84848D"/>
<g filter="url(#filter3_d_2_2)">
<rect x="544" y="209" width="55" height="55" rx="20" fill="#F9FDFF"/>
</g>
<g clip-path="url(#clip0_2_2)">
<path d="M576.863 236.453C576.863 235.978 576.485 235.594 576.019 235.594H567.328C566.862 235.594 566.484 235.978 566.484 236.453C566.484 236.928 566.862 237.312 567.328 237.312H576.019C576.485 237.312 576.863 236.928 576.863 236.453Z" fill="#84848D"/>
<path d="M567.328 239.031C566.862 239.031 566.484 239.416 566.484 239.891C566.484 240.365 566.862 240.75 567.328 240.75H572.606C573.072 240.75 573.45 240.365 573.45 239.891C573.45 239.416 573.072 239.031 572.606 239.031H567.328Z" fill="#84848D"/>
<path d="M569.314 247.281H566.492C565.562 247.281 564.805 246.51 564.805 245.562V230.438C564.805 229.49 565.562 228.719 566.492 228.719H576.866C577.796 228.719 578.553 229.49 578.553 230.438L578.647 246.25C578.647 246.708 579.097 246.708 579.097 246.708C579.097 246.708 579.547 247.281 580.241 235.723V230.438C580.241 228.542 578.727 227 576.866 227H566.492C564.631 227 563.117 228.542 563.117 230.438V245.562C563.117 247.458 564.631 249 566.492 249H569.314C569.78 249 570.158 248.615 570.158 248.141C570.158 247.666 569.78 247.281 569.314 247.281Z" fill="#84848D"/>
<path d="M576.019 232.156H567.328C566.862 232.156 566.484 232.541 566.484 233.016C566.484 233.49 566.862 233.875 567.328 233.875H576.019C576.485 233.875 576.863 233.49 576.863 233.016C576.863 232.541 576.485 232.156 576.019 232.156Z" fill="#84848D"/>
</g>
<g filter="url(#filter4_d_2_2)">
<rect x="544" y="284" width="55" height="55" rx="20" fill="#222223"/>
</g>
<path d="M577.725 305.163H564.275C563.021 305.163 562 306.222 562 307.522V316.477C562 317.778 563.021 318.837 564.275 318.837H577.725C578.979 318.837 580 317.778 580 316.477V307.522C580 306.222 578.979 305.163 577.725 305.163ZM577.37 306.685L571 311.788L564.63 306.685H577.37ZM577.725 317.315H564.275C563.83 317.315 563.467 316.939 563.467 316.478V307.676L570.551 313.352C570.684 313.457 570.842 313.51 571 313.51C571.158 313.51 571.316 313.457 571.449 313.352L578.533 307.676V316.477C578.533 316.939 578.17 317.315 577.725 317.315Z" fill="white"/>
<g filter="url(#filter5_d_2_2)">
<rect x="627" y="209" width="55" height="55" rx="20" fill="#222223"/>
</g>
<g clip-path="url(#clip1_2_2)">
<path d="M644.498 236.964C645.869 235.593 648.1 235.593 649.472 236.964L651.732 239.225C652.014 239.507 652.361 239.699 652.74 239.787L652.74 237.03L660.566 237.03C661.505 237.03 662.388 237.396 663.052 238.06L668 243.008L662.786 248.221L658.627 244.062L653.224 244.062C651.534 244.062 649.946 243.405 648.752 242.212C645.667 239.127 644.183 237.645 644 237.462L644.498 236.964ZM649.747 241.218C650.674 242.145 651.909 242.656 653.224 242.656L659.21 242.656L662.786 246.232L666.011 243.008L662.058 239.055C661.659 238.656 661.13 238.437 660.566 238.437L654.146 238.437L654.146 239.843L658.918 239.843L658.918 241.249L653.224 241.249C652.285 241.249 651.402 240.884 650.738 240.22L648.477 237.959C647.828 237.31 646.859 237.173 646.075 237.547C647.201 238.673 648.647 240.118 649.747 241.218Z" fill="white"/>
<path d="M649.952 225.779L659.797 225.779L659.797 235.624L649.952 235.624L649.952 225.779ZM651.358 234.217L658.39 234.217L658.39 227.185L655.578 227.185L655.578 229.998L654.171 229.998L654.171 227.185L651.358 227.185L651.358 234.217Z" fill="white"/>
</g>
<rect y="120.591" width="462" height="242.051" rx="15" transform="rotate(-15.1306 0 120.591)" fill="white"/>
<path d="M54.3821 211.032L52.1041 202.607L55.3292 201.735C55.938 201.57 56.47 201.529 56.925 201.612C57.3821 201.692 57.7552 201.869 58.0444 202.144C58.3363 202.418 58.5386 202.764 58.6513 203.181C58.744 203.523 58.7575 203.835 58.6919 204.114C58.6255 204.391 58.5016 204.635 58.3203 204.846C58.1389 205.057 57.92 205.232 57.6636 205.372L57.6858 205.455C57.9892 205.39 58.3006 205.405 58.6201 205.498C58.9416 205.588 59.2309 205.759 59.488 206.014C59.745 206.268 59.9314 206.609 60.0471 207.037C60.165 207.473 60.1655 207.893 60.0485 208.299C59.9307 208.701 59.6864 209.06 59.3155 209.376C58.9445 209.691 58.4368 209.935 57.7923 210.11L54.3821 211.032ZM55.5635 209.344L57.2048 208.9C57.7588 208.75 58.1293 208.537 58.3162 208.26C58.5052 207.979 58.5545 207.671 58.464 207.337C58.3965 207.087 58.274 206.879 58.0965 206.712C57.9182 206.543 57.6997 206.431 57.4409 206.377C57.1814 206.321 56.894 206.335 56.5786 206.421L54.8961 206.876L55.5635 209.344ZM54.5991 205.777L56.1088 205.369C56.3721 205.298 56.5963 205.186 56.7815 205.033C56.966 204.877 57.0945 204.693 57.167 204.483C57.2414 204.268 57.2453 204.038 57.1785 203.791C57.0903 203.464 56.9025 203.227 56.615 203.078C56.3303 202.928 55.963 202.914 55.5133 203.036L53.9707 203.453L54.5991 205.777ZM59.6931 201.928L59.3472 200.648L66.0689 198.831L66.4148 200.11L63.8109 200.814L65.743 207.96L64.2291 208.369L62.2971 201.224L59.6931 201.928ZM74.9712 199.474L73.4327 199.89C73.3206 199.65 73.1793 199.448 73.0087 199.285C72.8374 199.12 72.6454 198.992 72.4328 198.902C72.2202 198.813 71.9922 198.764 71.7488 198.756C71.5074 198.745 71.2578 198.774 71 198.844C70.542 198.968 70.1673 199.193 69.8758 199.519C69.5836 199.842 69.3971 200.252 69.3162 200.747C69.2347 201.24 69.2796 201.803 69.4509 202.437C69.6251 203.081 69.872 203.597 70.1916 203.985C70.5132 204.369 70.8799 204.626 71.2918 204.755C71.7056 204.882 72.1401 204.884 72.5954 204.761C72.8477 204.692 73.0746 204.596 73.2762 204.471C73.4798 204.342 73.6516 204.188 73.7915 204.009C73.9342 203.829 74.0399 203.627 74.1086 203.402C74.1801 203.177 74.2058 202.935 74.1857 202.675L75.7264 202.267C75.7771 202.683 75.7539 203.093 75.6569 203.496C75.5626 203.898 75.3982 204.275 75.1637 204.627C74.9285 204.976 74.6256 205.281 74.255 205.543C73.8837 205.803 73.4471 206 72.9452 206.136C72.2048 206.336 71.4975 206.343 70.8234 206.158C70.1493 205.972 69.5575 205.601 69.0479 205.044C68.5383 204.488 68.1612 203.757 67.9165 202.852C67.671 201.944 67.6298 201.122 67.7929 200.387C67.9552 199.648 68.2807 199.029 68.7694 198.529C69.2581 198.029 69.87 197.68 70.6049 197.481C71.0739 197.354 71.5277 197.302 71.9665 197.325C72.4052 197.347 72.8167 197.443 73.2011 197.613C73.5847 197.78 73.9276 198.02 74.2299 198.333C74.5342 198.642 74.7813 199.022 74.9712 199.474Z" fill="black"/>
<path d="M128.713 190.933L126.435 182.508L129.66 181.636C130.269 181.472 130.801 181.431 131.256 181.514C131.713 181.593 132.086 181.77 132.376 182.045C132.667 182.32 132.87 182.665 132.983 183.082C133.075 183.425 133.089 183.736 133.023 184.016C132.957 184.293 132.833 184.537 132.651 184.747C132.47 184.958 132.251 185.134 131.995 185.274L132.017 185.356C132.32 185.292 132.632 185.306 132.951 185.399C133.273 185.489 133.562 185.661 133.819 185.915C134.076 186.169 134.263 186.51 134.378 186.938C134.496 187.374 134.497 187.795 134.38 188.2C134.262 188.603 134.018 188.962 133.647 189.277C133.276 189.592 132.768 189.837 132.124 190.011L128.713 190.933ZM129.895 189.245L131.536 188.801C132.09 188.652 132.46 188.438 132.647 188.161C132.836 187.88 132.886 187.573 132.795 187.238C132.728 186.989 132.605 186.78 132.428 186.614C132.249 186.444 132.031 186.332 131.772 186.279C131.513 186.222 131.225 186.237 130.91 186.322L129.227 186.777L129.895 189.245ZM128.93 185.679L130.44 185.27C130.703 185.199 130.928 185.087 131.113 184.934C131.297 184.778 131.426 184.595 131.498 184.384C131.573 184.17 131.576 183.939 131.51 183.692C131.422 183.366 131.234 183.128 130.946 182.979C130.661 182.83 130.294 182.816 129.844 182.937L128.302 183.354L128.93 185.679ZM136.261 188.892L134.552 182.574L136.041 182.171L137.75 188.49L136.261 188.892ZM135.059 181.475C134.823 181.538 134.599 181.515 134.386 181.405C134.173 181.292 134.037 181.124 133.977 180.902C133.916 180.677 133.949 180.463 134.077 180.261C134.204 180.056 134.386 179.922 134.621 179.858C134.86 179.793 135.084 179.818 135.295 179.932C135.507 180.042 135.644 180.21 135.704 180.435C135.764 180.657 135.731 180.87 135.604 181.075C135.479 181.277 135.297 181.41 135.059 181.475ZM140.728 180.904L141.039 182.056L137.407 183.038L137.096 181.886L140.728 180.904ZM137.583 180.13L139.072 179.727L140.676 185.659C140.73 185.859 140.802 186.005 140.891 186.095C140.982 186.182 141.084 186.231 141.196 186.242C141.308 186.253 141.425 186.242 141.549 186.209C141.642 186.184 141.725 186.154 141.798 186.119C141.874 186.084 141.931 186.055 141.969 186.033L142.535 187.13C142.463 187.178 142.357 187.239 142.218 187.312C142.082 187.385 141.908 187.452 141.699 187.515C141.329 187.626 140.978 187.661 140.645 187.618C140.312 187.573 140.022 187.443 139.776 187.227C139.532 187.01 139.358 186.704 139.254 186.308L137.583 180.13ZM146.403 186.282C145.773 186.453 145.194 186.461 144.666 186.306C144.142 186.151 143.691 185.862 143.315 185.44C142.941 185.014 142.668 184.482 142.495 183.843C142.321 183.201 142.292 182.601 142.406 182.044C142.519 181.483 142.764 181.005 143.139 180.609C143.517 180.21 144.014 179.927 144.631 179.76C145.144 179.622 145.623 179.593 146.069 179.676C146.518 179.755 146.906 179.934 147.234 180.213C147.562 180.489 147.804 180.85 147.96 181.297L146.537 181.682C146.397 181.393 146.191 181.176 145.92 181.032C145.65 180.884 145.336 180.859 144.976 180.956C144.672 181.038 144.427 181.193 144.241 181.42C144.054 181.644 143.938 181.925 143.891 182.265C143.847 182.603 143.883 182.985 143.998 183.41C144.114 183.841 144.278 184.194 144.487 184.469C144.697 184.743 144.938 184.932 145.211 185.038C145.485 185.14 145.778 185.149 146.088 185.065C146.307 185.006 146.492 184.912 146.643 184.783C146.795 184.65 146.909 184.489 146.984 184.298C147.059 184.107 147.087 183.892 147.07 183.652L148.493 183.267C148.578 183.724 148.554 184.156 148.419 184.563C148.285 184.967 148.047 185.32 147.708 185.621C147.368 185.919 146.933 186.139 146.403 186.282ZM153.089 184.474C152.472 184.641 151.901 184.65 151.375 184.501C150.849 184.352 150.395 184.067 150.014 183.646C149.635 183.225 149.357 182.688 149.181 182.035C149.004 181.382 148.973 180.777 149.087 180.22C149.204 179.661 149.452 179.185 149.831 178.791C150.21 178.397 150.708 178.117 151.325 177.95C151.942 177.783 152.514 177.775 153.039 177.924C153.565 178.073 154.018 178.359 154.398 178.784C154.78 179.207 155.059 179.745 155.236 180.398C155.412 181.05 155.442 181.655 155.324 182.21C155.209 182.765 154.962 183.24 154.583 183.633C154.204 184.027 153.706 184.308 153.089 184.474ZM152.775 183.279C153.109 183.189 153.364 183.021 153.539 182.777C153.714 182.529 153.814 182.235 153.839 181.892C153.867 181.549 153.829 181.186 153.725 180.802C153.62 180.415 153.47 180.081 153.273 179.798C153.078 179.513 152.843 179.307 152.567 179.181C152.292 179.056 151.987 179.038 151.652 179.129C151.31 179.221 151.05 179.392 150.872 179.64C150.698 179.887 150.597 180.183 150.57 180.529C150.545 180.872 150.585 181.236 150.689 181.623C150.793 182.007 150.942 182.34 151.136 182.623C151.333 182.905 151.569 183.109 151.845 183.235C152.122 183.357 152.432 183.372 152.775 183.279ZM157.347 183.191L155.639 176.872L157.128 176.469L158.836 182.788L157.347 183.191ZM156.145 175.773C155.909 175.837 155.685 175.813 155.473 175.703C155.26 175.59 155.123 175.422 155.063 175.2C155.002 174.975 155.036 174.762 155.164 174.559C155.291 174.354 155.472 174.22 155.708 174.156C155.946 174.092 156.171 174.116 156.381 174.23C156.594 174.341 156.73 174.508 156.791 174.733C156.851 174.955 156.817 175.169 156.69 175.374C156.565 175.575 156.384 175.708 156.145 175.773ZM160.856 178.269L161.857 181.971L160.368 182.374L158.659 176.055L160.083 175.67L160.373 176.744L160.447 176.724C160.497 176.331 160.652 175.987 160.914 175.693C161.179 175.398 161.547 175.186 162.018 175.059C162.454 174.941 162.86 174.931 163.234 175.03C163.61 175.129 163.936 175.331 164.21 175.636C164.486 175.941 164.691 176.346 164.825 176.851L165.913 180.875L164.424 181.277L163.398 177.484C163.284 177.062 163.085 176.761 162.801 176.582C162.52 176.402 162.187 176.364 161.803 176.468C161.543 176.538 161.327 176.658 161.155 176.828C160.985 176.995 160.872 177.201 160.814 177.446C160.76 177.69 160.774 177.965 160.856 178.269Z" fill="#5E6E78"/>
<path d="M278.762 150.973L275.915 140.442L276.59 140.26L279.437 150.791L278.762 150.973ZM278.908 143.138C278.759 142.76 278.497 142.507 278.121 142.379C277.744 142.249 277.314 142.249 276.832 142.379C276.486 142.473 276.202 142.608 275.979 142.786C275.756 142.961 275.6 143.163 275.511 143.39C275.424 143.613 275.413 143.844 275.478 144.083C275.532 144.283 275.625 144.443 275.758 144.563C275.893 144.683 276.051 144.771 276.231 144.828C276.414 144.882 276.603 144.918 276.799 144.935C276.994 144.95 277.18 144.956 277.355 144.953L278.236 144.944C278.522 144.937 278.822 144.952 279.135 144.988C279.448 145.024 279.75 145.101 280.041 145.22C280.332 145.338 280.588 145.513 280.81 145.745C281.034 145.975 281.197 146.28 281.299 146.658C281.428 147.136 281.42 147.593 281.273 148.03C281.129 148.466 280.853 148.854 280.444 149.194C280.039 149.533 279.507 149.792 278.849 149.97C278.218 150.14 277.645 150.188 277.13 150.112C276.615 150.036 276.178 149.85 275.818 149.553C275.457 149.253 275.195 148.853 275.03 148.353L276.305 148.009C276.412 148.306 276.58 148.533 276.807 148.69C277.037 148.842 277.301 148.931 277.599 148.957C277.899 148.979 278.213 148.945 278.539 148.857C278.898 148.76 279.203 148.617 279.452 148.429C279.703 148.238 279.882 148.019 279.989 147.772C280.095 147.522 280.111 147.261 280.037 146.986C279.97 146.737 279.843 146.552 279.658 146.431C279.475 146.31 279.249 146.23 278.979 146.191C278.712 146.151 278.417 146.132 278.094 146.134L277.025 146.132C276.301 146.131 275.693 146.005 275.202 145.756C274.713 145.505 274.39 145.086 274.231 144.5C274.1 144.014 274.117 143.555 274.282 143.122C274.448 142.688 274.728 142.311 275.124 141.989C275.519 141.665 275.998 141.426 276.563 141.273C277.134 141.119 277.664 141.083 278.154 141.165C278.647 141.247 279.067 141.429 279.415 141.712C279.761 141.992 280.001 142.357 280.134 142.806L278.908 143.138ZM283.333 148.607L283.084 147.686L285.136 143.961C285.353 143.558 285.528 143.209 285.66 142.914C285.795 142.616 285.881 142.344 285.921 142.098C285.96 141.852 285.947 141.605 285.88 141.359C285.804 141.079 285.673 140.855 285.487 140.688C285.299 140.518 285.077 140.409 284.82 140.361C284.562 140.31 284.29 140.323 284.005 140.4C283.703 140.481 283.457 140.614 283.265 140.799C283.074 140.983 282.948 141.204 282.888 141.461C282.828 141.719 282.839 141.998 282.921 142.3L281.707 142.628C281.569 142.115 281.565 141.635 281.697 141.187C281.829 140.74 282.072 140.354 282.427 140.032C282.78 139.707 283.219 139.474 283.743 139.332C284.272 139.189 284.767 139.168 285.227 139.27C285.689 139.369 286.083 139.569 286.409 139.869C286.733 140.167 286.957 140.542 287.079 140.995C287.164 141.307 287.188 141.629 287.15 141.96C287.116 142.29 287.005 142.677 286.816 143.123C286.627 143.565 286.346 144.117 285.974 144.776L284.774 146.981L284.79 147.043L288.583 146.018L288.878 147.108L283.333 148.607ZM293.401 146.008C292.836 146.161 292.305 146.2 291.808 146.125C291.314 146.05 290.891 145.875 290.54 145.599C290.191 145.319 289.945 144.953 289.802 144.501L291.094 144.151C291.177 144.396 291.32 144.59 291.52 144.733C291.723 144.873 291.961 144.959 292.234 144.991C292.508 145.023 292.795 144.998 293.097 144.916C293.429 144.827 293.707 144.69 293.931 144.505C294.157 144.321 294.315 144.106 294.405 143.861C294.494 143.613 294.502 143.353 294.429 143.082C294.352 142.799 294.212 142.571 294.009 142.396C293.808 142.218 293.552 142.105 293.242 142.056C292.934 142.007 292.586 142.035 292.196 142.14L291.485 142.333L291.204 141.296L291.916 141.104C292.229 141.019 292.488 140.889 292.693 140.713C292.901 140.536 293.046 140.329 293.126 140.092C293.205 139.853 293.208 139.598 293.135 139.326C293.065 139.066 292.944 138.855 292.775 138.695C292.607 138.532 292.401 138.424 292.157 138.372C291.917 138.32 291.652 138.332 291.364 138.41C291.09 138.484 290.847 138.604 290.636 138.77C290.427 138.933 290.274 139.127 290.176 139.354C290.078 139.578 290.058 139.82 290.116 140.081L288.886 140.413C288.777 139.954 288.803 139.517 288.965 139.103C289.129 138.688 289.396 138.326 289.766 138.017C290.136 137.708 290.578 137.484 291.094 137.344C291.634 137.198 292.129 137.178 292.578 137.283C293.029 137.384 293.409 137.58 293.717 137.871C294.028 138.161 294.238 138.513 294.347 138.928C294.477 139.399 294.454 139.835 294.277 140.236C294.103 140.636 293.811 140.952 293.403 141.183L293.421 141.249C294.003 141.182 294.497 141.287 294.901 141.564C295.308 141.839 295.582 142.243 295.723 142.776C295.851 143.239 295.835 143.689 295.674 144.127C295.515 144.564 295.241 144.949 294.851 145.281C294.46 145.61 293.977 145.853 293.401 146.008ZM298.96 143.146L299.019 143.611C299.067 143.951 299.09 144.313 299.087 144.696C299.089 145.081 299.079 145.441 299.057 145.777C299.039 146.111 299.021 146.378 299.004 146.577L298.132 146.813C298.122 146.633 298.109 146.389 298.094 146.081C298.079 145.776 298.053 145.437 298.017 145.065C297.981 144.692 297.928 144.316 297.858 143.938L297.775 143.466L298.96 143.146ZM300.37 142.235L300.092 141.206L302.177 134.471L302.988 134.252L303.397 135.766L302.883 135.905L301.393 140.731L301.411 140.796L306.401 139.447L306.692 140.525L300.37 142.235ZM304.809 142.8L304.28 140.842L304.161 140.371L302.539 134.373L303.745 134.047L306.023 142.472L304.809 142.8ZM309.063 132.485C309.44 132.387 309.828 132.355 310.229 132.391C310.631 132.427 311.019 132.557 311.395 132.782C311.773 133.006 312.12 133.354 312.436 133.825C312.754 134.292 313.018 134.909 313.228 135.677C313.427 136.414 313.531 137.091 313.539 137.707C313.546 138.32 313.464 138.862 313.294 139.332C313.126 139.801 312.874 140.191 312.538 140.503C312.201 140.814 311.787 141.037 311.297 141.169C310.795 141.305 310.322 141.327 309.879 141.235C309.437 141.143 309.046 140.955 308.708 140.673C308.369 140.388 308.108 140.026 307.924 139.587L309.179 139.248C309.359 139.588 309.606 139.836 309.919 139.993C310.234 140.146 310.593 140.168 310.996 140.059C311.613 139.892 312.022 139.493 312.222 138.862C312.422 138.228 312.392 137.427 312.133 136.458L312.067 136.476C311.988 136.751 311.865 137.002 311.697 137.23C311.532 137.457 311.33 137.652 311.092 137.817C310.854 137.981 310.585 138.104 310.286 138.185C309.801 138.316 309.327 138.316 308.865 138.185C308.403 138.054 307.998 137.812 307.649 137.459C307.3 137.106 307.054 136.662 306.909 136.127C306.765 135.595 306.756 135.08 306.88 134.581C307.007 134.082 307.254 133.647 307.622 133.277C307.992 132.903 308.472 132.639 309.063 132.485ZM309.356 133.554C309.036 133.641 308.768 133.798 308.553 134.027C308.34 134.252 308.196 134.519 308.121 134.828C308.045 135.134 308.051 135.451 308.139 135.777C308.227 136.103 308.378 136.38 308.593 136.608C308.81 136.832 309.064 136.988 309.356 137.077C309.649 137.162 309.958 137.161 310.282 137.074C310.523 137.008 310.735 136.901 310.919 136.751C311.102 136.602 311.249 136.424 311.361 136.217C311.472 136.007 311.543 135.785 311.574 135.55C311.604 135.315 311.588 135.081 311.525 134.848C311.441 134.538 311.289 134.27 311.069 134.044C310.852 133.817 310.594 133.658 310.295 133.565C309.996 133.469 309.683 133.466 309.356 133.554ZM318.747 139.155C318.232 139.294 317.742 139.321 317.277 139.235C316.814 139.145 316.414 138.959 316.075 138.677C315.737 138.394 315.499 138.032 315.362 137.589L316.596 137.256C316.724 137.609 316.965 137.864 317.319 138.018C317.672 138.173 318.052 138.195 318.458 138.085C318.782 137.998 319.048 137.846 319.258 137.631C319.469 137.412 319.611 137.151 319.682 136.849C319.756 136.547 319.748 136.227 319.657 135.889C319.564 135.547 319.407 135.261 319.186 135.032C318.966 134.803 318.704 134.648 318.402 134.564C318.103 134.481 317.786 134.482 317.45 134.57C317.195 134.639 316.951 134.752 316.717 134.91C316.483 135.067 316.305 135.239 316.185 135.424L314.974 135.566L314.299 131.193L318.931 129.941L319.226 131.031L315.651 131.998L316.021 134.427L316.07 134.414C316.192 134.21 316.374 134.018 316.617 133.838C316.862 133.657 317.141 133.524 317.454 133.439C317.966 133.301 318.456 133.299 318.922 133.435C319.391 133.57 319.798 133.818 320.143 134.178C320.489 134.534 320.735 134.986 320.88 135.532C321.03 136.077 321.038 136.597 320.905 137.093C320.773 137.587 320.522 138.017 320.15 138.383C319.78 138.745 319.312 139.002 318.747 139.155Z" fill="black"/>
<rect x="368.46" y="109.532" width="58" height="23" rx="11.5" transform="rotate(-15.1306 368.46 109.532)" fill="#219653" fill-opacity="0.2"/>
<path d="M383.036 119.923L381.753 115.179L382.829 114.888L384.112 119.632L383.036 119.923ZM380.706 118.585L380.415 117.509L385.159 116.226L385.45 117.302L380.706 118.585ZM387.506 119.921L387.257 119.002L389.048 115.954C389.218 115.656 389.356 115.394 389.462 115.169C389.568 114.944 389.636 114.736 389.668 114.543C389.699 114.351 389.688 114.158 389.636 113.963C389.576 113.742 389.474 113.566 389.331 113.435C389.187 113.302 389.016 113.216 388.816 113.177C388.617 113.138 388.405 113.148 388.181 113.209C387.95 113.271 387.761 113.374 387.613 113.517C387.465 113.658 387.366 113.828 387.317 114.027C387.27 114.226 387.28 114.446 387.344 114.686L386.134 115.013C386.014 114.567 386.011 114.153 386.125 113.768C386.24 113.384 386.451 113.054 386.758 112.777C387.068 112.499 387.455 112.298 387.919 112.172C388.39 112.045 388.827 112.021 389.232 112.101C389.636 112.18 389.977 112.347 390.257 112.6C390.538 112.852 390.732 113.175 390.839 113.568C390.91 113.831 390.929 114.103 390.897 114.384C390.865 114.665 390.764 114.994 390.594 115.371C390.426 115.747 390.174 116.216 389.838 116.778L388.96 118.336L388.973 118.384L392.031 117.557L392.319 118.62L387.506 119.921ZM396.047 117.715C395.553 117.848 395.091 117.882 394.662 117.817C394.234 117.751 393.869 117.597 393.566 117.355C393.263 117.114 393.051 116.797 392.93 116.405L394.219 116.057C394.282 116.243 394.389 116.392 394.542 116.503C394.694 116.611 394.875 116.679 395.086 116.705C395.297 116.732 395.52 116.713 395.755 116.649C396.006 116.582 396.218 116.478 396.388 116.338C396.558 116.197 396.677 116.032 396.744 115.845C396.811 115.658 396.816 115.461 396.758 115.256C396.703 115.043 396.597 114.871 396.441 114.739C396.285 114.607 396.089 114.524 395.852 114.49C395.617 114.455 395.351 114.478 395.054 114.558L394.433 114.726L394.168 113.746L394.788 113.578C395.033 113.512 395.235 113.412 395.395 113.278C395.557 113.143 395.67 112.985 395.734 112.804C395.797 112.62 395.8 112.426 395.743 112.224C395.691 112.024 395.6 111.864 395.469 111.742C395.34 111.618 395.182 111.537 394.995 111.499C394.811 111.46 394.609 111.471 394.389 111.53C394.174 111.588 393.986 111.681 393.824 111.808C393.662 111.935 393.545 112.086 393.472 112.26C393.398 112.432 393.385 112.617 393.431 112.816L392.207 113.147C392.11 112.751 392.13 112.375 392.267 112.02C392.405 111.661 392.634 111.349 392.955 111.083C393.275 110.815 393.662 110.62 394.117 110.497C394.586 110.37 395.016 110.348 395.409 110.431C395.803 110.51 396.135 110.672 396.404 110.915C396.674 111.159 396.857 111.459 396.953 111.815C397.062 112.21 397.035 112.573 396.872 112.904C396.712 113.235 396.453 113.492 396.095 113.677L396.11 113.732C396.622 113.667 397.05 113.748 397.393 113.974C397.738 114.197 397.969 114.528 398.085 114.967C398.191 115.36 398.174 115.743 398.035 116.114C397.896 116.483 397.656 116.808 397.312 117.089C396.971 117.37 396.55 117.579 396.047 117.715ZM400.38 116.521C400.172 116.577 399.974 116.552 399.786 116.446C399.598 116.34 399.477 116.181 399.422 115.971C399.364 115.766 399.39 115.57 399.499 115.383C399.608 115.197 399.766 115.076 399.974 115.019C400.175 114.965 400.37 114.991 400.558 115.097C400.748 115.202 400.873 115.358 400.93 115.563C400.966 115.703 400.964 115.84 400.924 115.973C400.886 116.106 400.819 116.222 400.724 116.321C400.63 116.418 400.515 116.484 400.38 116.521ZM401.902 114.63L401.629 113.619L403.335 108.107L404.179 107.879L404.568 109.319L404.054 109.458L402.908 113.178L402.922 113.233L407.081 112.108L407.363 113.154L401.902 114.63ZM405.604 115.027L405.168 113.416L405.06 112.96L403.719 108.003L404.919 107.679L406.817 114.699L405.604 115.027ZM412.209 111.829L412.108 111.459C412.035 111.187 412.024 110.921 412.077 110.662C412.132 110.402 412.251 110.172 412.435 109.973C412.619 109.773 412.869 109.631 413.184 109.546C413.509 109.458 413.799 109.454 414.056 109.534C414.313 109.612 414.528 109.75 414.702 109.948C414.878 110.146 415.003 110.382 415.077 110.656L415.177 111.026C415.251 111.298 415.261 111.564 415.209 111.823C415.156 112.083 415.038 112.312 414.854 112.512C414.672 112.71 414.422 112.853 414.102 112.939C413.782 113.026 413.492 113.029 413.233 112.95C412.973 112.871 412.756 112.732 412.58 112.534C412.406 112.336 412.282 112.101 412.209 111.829ZM413.003 111.217L413.103 111.587C413.152 111.768 413.24 111.922 413.368 112.049C413.496 112.176 413.669 112.21 413.888 112.151C414.11 112.091 414.242 111.976 414.284 111.805C414.328 111.631 414.325 111.453 414.276 111.27L414.176 110.9C414.126 110.717 414.041 110.561 413.92 110.432C413.799 110.3 413.624 110.265 413.395 110.327C413.181 110.385 413.049 110.503 413.002 110.68C412.953 110.855 412.954 111.034 413.003 111.217ZM407.554 108.776L407.454 108.406C407.379 108.132 407.37 107.865 407.424 107.605C407.479 107.345 407.599 107.116 407.783 106.919C407.967 106.72 408.217 106.577 408.533 106.492C408.855 106.405 409.144 106.401 409.402 106.481C409.66 106.559 409.877 106.696 410.05 106.895C410.224 107.093 410.348 107.329 410.422 107.603L410.522 107.974C410.596 108.248 410.607 108.515 410.555 108.774C410.504 109.031 410.386 109.257 410.202 109.454C410.017 109.652 409.766 109.793 409.448 109.879C409.126 109.966 408.836 109.971 408.577 109.894C408.32 109.816 408.104 109.678 407.928 109.481C407.752 109.283 407.627 109.048 407.554 108.776ZM408.355 108.162L408.455 108.533C408.505 108.715 408.592 108.871 408.717 108.999C408.844 109.124 409.018 109.157 409.237 109.097C409.456 109.038 409.587 108.923 409.629 108.752C409.673 108.578 409.67 108.4 409.621 108.217L409.521 107.847C409.471 107.664 409.386 107.508 409.265 107.379C409.144 107.248 408.97 107.212 408.744 107.274C408.527 107.332 408.395 107.45 408.35 107.627C408.305 107.803 408.306 107.982 408.355 108.162ZM409.387 114.005L412.315 105.679L413.172 105.447L410.244 113.773L409.387 114.005Z" fill="#219653"/>
<path d="M69.5764 249.056C69.4409 248.707 69.2034 248.471 68.8641 248.348C68.5275 248.224 68.1329 248.223 67.6804 248.345C67.3623 248.431 67.1024 248.553 66.9008 248.711C66.6991 248.868 66.5602 249.046 66.484 249.243C66.4078 249.44 66.3969 249.645 66.4513 249.856C66.4987 250.032 66.5797 250.173 66.694 250.281C66.8112 250.387 66.9519 250.467 67.1162 250.52C67.2798 250.57 67.4548 250.602 67.6411 250.616C67.8275 250.631 68.0126 250.635 68.1965 250.629L69.0397 250.613C69.3778 250.601 69.7107 250.619 70.0382 250.666C70.3685 250.712 70.6762 250.799 70.9612 250.928C71.2489 251.056 71.4981 251.238 71.7086 251.472C71.9192 251.706 72.0737 252.006 72.1724 252.371C72.3058 252.864 72.2972 253.333 72.1465 253.777C71.9951 254.218 71.7093 254.609 71.2892 254.949C70.8711 255.286 70.3248 255.545 69.6501 255.728C68.9947 255.905 68.3982 255.957 67.8607 255.885C67.3259 255.812 66.8701 255.617 66.4933 255.301C66.1192 254.985 65.8456 254.549 65.6724 253.996L67.1738 253.59C67.2751 253.877 67.4316 254.097 67.6433 254.249C67.855 254.4 68.1014 254.49 68.3824 254.517C68.6661 254.543 68.9671 254.513 69.2852 254.427C69.617 254.337 69.8944 254.209 70.1172 254.043C70.3421 253.874 70.5017 253.68 70.5961 253.464C70.6898 253.244 70.7054 253.013 70.6429 252.771C70.5808 252.552 70.4674 252.389 70.3027 252.28C70.1372 252.169 69.9277 252.096 69.6742 252.062C69.4226 252.024 69.1356 252.007 68.8132 252.012L67.7879 252.024C67.0459 252.034 66.4244 251.912 65.9234 251.659C65.4243 251.403 65.0933 250.973 64.9301 250.369C64.7959 249.873 64.8128 249.402 64.9807 248.956C65.1513 248.51 65.4419 248.121 65.8525 247.789C66.2624 247.455 66.7621 247.208 67.3518 247.048C67.9496 246.887 68.5016 246.849 69.0077 246.936C69.5158 247.019 69.9484 247.21 70.3056 247.508C70.662 247.803 70.9085 248.186 71.045 248.658L69.5764 249.056ZM80.5615 248.12C80.8069 249.028 80.8471 249.851 80.6821 250.591C80.519 251.326 80.1918 251.945 79.7003 252.445C79.2116 252.945 78.5984 253.295 77.8607 253.495C77.123 253.694 76.4157 253.701 75.7389 253.516C75.0641 253.328 74.4695 252.958 73.9552 252.405C73.4428 251.849 73.0643 251.119 72.8196 250.214C72.5742 249.306 72.533 248.484 72.696 247.749C72.8611 247.009 73.188 246.39 73.6767 245.89C74.1681 245.389 74.7827 245.039 75.5204 244.839C76.2581 244.64 76.964 244.633 77.6381 244.819C78.3149 245.003 78.9095 245.374 79.4218 245.93C79.9361 246.482 80.316 247.213 80.5615 248.12ZM79.0271 248.535C78.8543 247.896 78.6085 247.384 78.2897 247C77.9728 246.612 77.6085 246.353 77.1966 246.223C76.7841 246.09 76.3488 246.085 75.8908 246.209C75.4328 246.333 75.0591 246.556 74.7696 246.879C74.4794 247.199 74.2939 247.606 74.213 248.102C74.1342 248.594 74.1812 249.16 74.354 249.799C74.5268 250.438 74.7716 250.951 75.0884 251.339C75.4073 251.724 75.773 251.983 76.1856 252.115C76.5974 252.245 77.0323 252.249 77.4903 252.125C77.9483 252.001 78.3224 251.779 78.6126 251.459C78.9021 251.137 79.0862 250.729 79.165 250.237C79.2459 249.741 79.1999 249.174 79.0271 248.535ZM83.1433 251.943L80.8653 243.518L82.3915 243.105L84.3236 250.251L88.0341 249.247L88.38 250.527L83.1433 251.943Z" fill="black"/>
<path d="M142.942 229.218C142.806 228.869 142.569 228.633 142.229 228.51C141.893 228.386 141.498 228.386 141.046 228.508C140.728 228.594 140.468 228.716 140.266 228.873C140.064 229.031 139.926 229.208 139.849 229.405C139.773 229.603 139.762 229.807 139.817 230.019C139.864 230.195 139.945 230.336 140.059 230.443C140.177 230.55 140.317 230.63 140.482 230.682C140.645 230.732 140.82 230.764 141.007 230.779C141.193 230.793 141.378 230.798 141.562 230.792L142.405 230.776C142.743 230.764 143.076 230.781 143.404 230.828C143.734 230.874 144.042 230.962 144.327 231.091C144.614 231.219 144.863 231.4 145.074 231.635C145.285 231.869 145.439 232.169 145.538 232.533C145.671 233.027 145.663 233.496 145.512 233.94C145.36 234.381 145.075 234.772 144.655 235.112C144.236 235.448 143.69 235.708 143.015 235.89C142.36 236.068 141.764 236.12 141.226 236.048C140.691 235.974 140.235 235.78 139.859 235.464C139.485 235.147 139.211 234.712 139.038 234.158L140.539 233.752C140.64 234.04 140.797 234.26 141.009 234.411C141.22 234.563 141.467 234.652 141.748 234.679C142.032 234.706 142.332 234.676 142.651 234.59C142.982 234.5 143.26 234.372 143.483 234.206C143.707 234.036 143.867 233.843 143.962 233.626C144.055 233.407 144.071 233.176 144.008 232.934C143.946 232.715 143.833 232.551 143.668 232.443C143.503 232.332 143.293 232.259 143.04 232.224C142.788 232.186 142.501 232.17 142.179 232.175L141.153 232.187C140.411 232.196 139.79 232.075 139.289 231.822C138.79 231.565 138.459 231.135 138.296 230.532C138.161 230.035 138.178 229.564 138.346 229.119C138.517 228.672 138.807 228.283 139.218 227.952C139.628 227.617 140.128 227.37 140.717 227.211C141.315 227.049 141.867 227.012 142.373 227.099C142.881 227.182 143.314 227.372 143.671 227.67C144.027 227.965 144.274 228.349 144.41 228.821L142.942 229.218ZM150.262 233.927C149.645 234.094 149.073 234.102 148.547 233.953C148.021 233.804 147.568 233.519 147.186 233.099C146.807 232.677 146.529 232.14 146.353 231.487C146.177 230.835 146.145 230.23 146.259 229.672C146.376 229.114 146.624 228.637 147.003 228.244C147.382 227.85 147.88 227.569 148.497 227.403C149.115 227.236 149.686 227.227 150.212 227.376C150.738 227.525 151.191 227.812 151.57 228.236C151.952 228.659 152.232 229.197 152.408 229.85C152.585 230.503 152.614 231.107 152.497 231.663C152.382 232.217 152.135 232.692 151.756 233.086C151.377 233.48 150.879 233.76 150.262 233.927ZM149.947 232.732C150.282 232.641 150.537 232.474 150.712 232.229C150.886 231.982 150.986 231.687 151.011 231.345C151.039 231.002 151.001 230.638 150.897 230.254C150.793 229.867 150.642 229.533 150.445 229.251C150.25 228.965 150.015 228.759 149.74 228.634C149.464 228.508 149.16 228.49 148.825 228.581C148.482 228.674 148.222 228.844 148.045 229.092C147.87 229.339 147.77 229.636 147.743 229.982C147.717 230.324 147.757 230.688 147.862 231.075C147.965 231.459 148.114 231.792 148.309 232.075C148.506 232.358 148.742 232.562 149.017 232.687C149.294 232.809 149.604 232.824 149.947 232.732ZM153.731 223.816L156.009 232.24L154.52 232.643L152.242 224.218L153.731 223.816ZM159.393 231.462C158.993 231.57 158.613 231.597 158.253 231.541C157.896 231.481 157.586 231.336 157.323 231.104C157.063 230.871 156.877 230.547 156.765 230.133C156.668 229.777 156.654 229.464 156.723 229.195C156.792 228.927 156.921 228.692 157.111 228.49C157.3 228.289 157.528 228.114 157.794 227.966C158.062 227.814 158.345 227.68 158.643 227.564C159.003 227.425 159.294 227.31 159.517 227.217C159.738 227.122 159.892 227.028 159.978 226.934C160.067 226.836 160.092 226.716 160.053 226.573L160.046 226.549C159.963 226.239 159.806 226.024 159.576 225.903C159.346 225.783 159.059 225.77 158.713 225.863C158.349 225.962 158.081 226.119 157.91 226.336C157.742 226.552 157.65 226.779 157.634 227.016L156.191 227.194C156.196 226.78 156.291 226.411 156.473 226.085C156.655 225.756 156.911 225.478 157.241 225.25C157.57 225.02 157.955 224.845 158.397 224.726C158.701 224.643 159.014 224.597 159.335 224.587C159.656 224.577 159.963 224.62 160.257 224.717C160.551 224.811 160.811 224.978 161.037 225.217C161.266 225.455 161.438 225.784 161.551 226.204L162.695 230.432L161.263 230.82L161.028 229.952L160.979 229.965C160.936 230.165 160.853 230.364 160.73 230.562C160.609 230.757 160.438 230.934 160.216 231.094C159.996 231.25 159.722 231.373 159.393 231.462ZM159.484 230.263C159.783 230.182 160.026 230.053 160.213 229.876C160.4 229.696 160.526 229.492 160.59 229.262C160.658 229.032 160.66 228.801 160.597 228.567L160.395 227.823C160.359 227.874 160.289 227.931 160.186 227.994C160.085 228.057 159.969 228.119 159.839 228.181C159.708 228.243 159.579 228.301 159.449 228.357C159.32 228.412 159.208 228.46 159.113 228.501C158.899 228.591 158.714 228.694 158.557 228.81C158.4 228.926 158.287 229.059 158.219 229.21C158.15 229.358 158.142 229.528 158.194 229.72C158.268 229.995 158.424 230.175 158.662 230.26C158.9 230.346 159.174 230.347 159.484 230.263ZM164.68 225.923L165.681 229.625L164.192 230.028L162.483 223.709L163.907 223.324L164.197 224.398L164.271 224.378C164.321 223.985 164.477 223.641 164.738 223.347C165.003 223.051 165.371 222.84 165.843 222.712C166.279 222.595 166.684 222.585 167.058 222.684C167.435 222.782 167.76 222.984 168.034 223.29C168.31 223.595 168.516 224 168.649 224.505L169.737 228.528L168.248 228.931L167.222 225.138C167.108 224.716 166.909 224.415 166.625 224.236C166.344 224.056 166.012 224.018 165.628 224.121C165.367 224.192 165.151 224.312 164.979 224.482C164.809 224.649 164.696 224.855 164.638 225.1C164.584 225.344 164.598 225.618 164.68 225.923ZM173.104 227.755C172.703 227.863 172.323 227.889 171.964 227.833C171.607 227.774 171.296 227.628 171.034 227.396C170.773 227.164 170.587 226.84 170.475 226.426C170.379 226.07 170.365 225.757 170.434 225.488C170.502 225.219 170.631 224.984 170.821 224.783C171.011 224.582 171.239 224.407 171.505 224.258C171.773 224.106 172.056 223.972 172.354 223.856C172.714 223.718 173.005 223.603 173.227 223.51C173.449 223.415 173.603 223.32 173.689 223.226C173.777 223.129 173.802 223.009 173.764 222.866L173.757 222.841C173.673 222.532 173.517 222.316 173.287 222.196C173.057 222.076 172.77 222.062 172.424 222.156C172.059 222.254 171.791 222.412 171.621 222.629C171.452 222.845 171.361 223.072 171.345 223.308L169.901 223.487C169.907 223.073 170.001 222.703 170.184 222.377C170.366 222.049 170.622 221.77 170.952 221.543C171.281 221.313 171.666 221.138 172.108 221.018C172.412 220.936 172.725 220.89 173.046 220.88C173.367 220.869 173.674 220.913 173.968 221.01C174.262 221.104 174.521 221.271 174.748 221.51C174.977 221.748 175.148 222.077 175.262 222.496L176.405 226.725L174.974 227.112L174.739 226.244L174.69 226.258C174.647 226.458 174.564 226.657 174.441 226.855C174.32 227.049 174.148 227.227 173.927 227.387C173.707 227.543 173.433 227.666 173.104 227.755ZM173.194 226.556C173.493 226.475 173.737 226.346 173.924 226.169C174.111 225.989 174.237 225.784 174.301 225.555C174.368 225.325 174.37 225.093 174.307 224.86L174.106 224.116C174.07 224.167 174 224.224 173.896 224.287C173.796 224.35 173.68 224.412 173.55 224.474C173.419 224.535 173.289 224.594 173.16 224.649C173.031 224.705 172.919 224.753 172.824 224.793C172.61 224.884 172.424 224.987 172.267 225.103C172.11 225.219 171.998 225.352 171.93 225.503C171.861 225.651 171.852 225.821 171.904 226.013C171.979 226.287 172.135 226.467 172.373 226.553C172.611 226.639 172.885 226.64 173.194 226.556Z" fill="#5E6E78"/>
<path d="M308.689 191.569L305.841 181.038L306.516 180.855L309.363 191.386L308.689 191.569ZM308.835 183.733C308.686 183.356 308.423 183.103 308.047 182.975C307.67 182.845 307.241 182.844 306.758 182.975C306.412 183.068 306.128 183.204 305.906 183.382C305.682 183.557 305.526 183.758 305.438 183.985C305.351 184.209 305.34 184.44 305.404 184.679C305.458 184.879 305.552 185.039 305.684 185.159C305.82 185.278 305.977 185.367 306.158 185.424C306.34 185.478 306.529 185.513 306.725 185.531C306.92 185.546 307.106 185.552 307.282 185.548L308.162 185.54C308.449 185.533 308.748 185.547 309.061 185.584C309.374 185.62 309.676 185.697 309.967 185.815C310.258 185.934 310.514 186.109 310.736 186.34C310.96 186.571 311.123 186.876 311.226 187.254C311.355 187.731 311.346 188.188 311.199 188.625C311.055 189.061 310.779 189.45 310.371 189.79C309.965 190.129 309.433 190.387 308.775 190.565C308.144 190.736 307.571 190.783 307.057 190.708C306.542 190.632 306.104 190.446 305.744 190.149C305.384 189.849 305.121 189.449 304.957 188.949L306.232 188.604C306.339 188.902 306.506 189.129 306.734 189.285C306.963 189.438 307.227 189.527 307.526 189.552C307.826 189.574 308.139 189.541 308.465 189.453C308.825 189.356 309.129 189.213 309.378 189.025C309.63 188.833 309.809 188.614 309.916 188.368C310.022 188.118 310.038 187.856 309.964 187.582C309.896 187.332 309.77 187.147 309.584 187.027C309.401 186.906 309.175 186.826 308.905 186.787C308.639 186.747 308.344 186.728 308.021 186.73L306.952 186.728C306.227 186.727 305.62 186.601 305.128 186.351C304.64 186.101 304.316 185.682 304.157 185.095C304.026 184.61 304.043 184.151 304.209 183.717C304.374 183.284 304.654 182.907 305.05 182.585C305.445 182.26 305.925 182.022 306.49 181.869C307.06 181.715 307.591 181.679 308.081 181.761C308.574 181.843 308.994 182.025 309.341 182.307C309.687 182.588 309.927 182.952 310.061 183.402L308.835 183.733ZM312.637 187.605L312.359 186.577L314.445 179.841L315.255 179.622L315.665 181.136L315.15 181.275L313.661 186.101L313.679 186.167L318.669 184.818L318.96 185.896L312.637 187.605ZM317.077 188.171L316.547 186.212L316.429 185.741L314.807 179.744L316.012 179.418L318.29 187.842L317.077 188.171ZM321.331 177.856C321.707 177.757 322.096 177.726 322.497 177.761C322.898 177.797 323.287 177.927 323.662 178.153C324.041 178.377 324.388 178.724 324.704 179.195C325.021 179.663 325.285 180.28 325.496 181.047C325.695 181.785 325.799 182.462 325.806 183.078C325.813 183.691 325.731 184.232 325.561 184.702C325.394 185.171 325.142 185.562 324.805 185.873C324.469 186.185 324.055 186.407 323.564 186.54C323.062 186.676 322.59 186.697 322.147 186.605C321.704 186.513 321.314 186.326 320.975 186.044C320.636 185.759 320.375 185.397 320.192 184.958L321.446 184.618C321.627 184.958 321.873 185.206 322.186 185.363C322.502 185.516 322.861 185.538 323.264 185.429C323.881 185.262 324.289 184.864 324.49 184.233C324.689 183.599 324.659 182.798 324.4 181.829L324.334 181.847C324.256 182.121 324.132 182.372 323.964 182.6C323.799 182.827 323.598 183.023 323.359 183.187C323.121 183.352 322.853 183.474 322.554 183.555C322.069 183.687 321.595 183.687 321.133 183.556C320.67 183.424 320.265 183.182 319.917 182.829C319.568 182.476 319.321 182.032 319.177 181.498C319.033 180.966 319.023 180.45 319.147 179.952C319.274 179.452 319.522 179.018 319.889 178.647C320.259 178.274 320.74 178.01 321.331 177.856ZM321.624 178.924C321.303 179.011 321.035 179.169 320.821 179.398C320.608 179.623 320.464 179.89 320.388 180.199C320.312 180.505 320.318 180.821 320.406 181.147C320.495 181.474 320.646 181.751 320.861 181.978C321.077 182.202 321.331 182.359 321.623 182.447C321.917 182.533 322.226 182.532 322.549 182.444C322.791 182.379 323.003 182.271 323.186 182.122C323.369 181.972 323.517 181.794 323.629 181.587C323.74 181.378 323.811 181.155 323.841 180.921C323.872 180.686 323.856 180.452 323.793 180.219C323.709 179.909 323.557 179.641 323.337 179.415C323.12 179.188 322.862 179.028 322.563 178.935C322.263 178.84 321.95 178.836 321.624 178.924ZM331.015 184.525C330.499 184.665 330.009 184.691 329.544 184.605C329.082 184.515 328.681 184.329 328.343 184.047C328.005 183.765 327.767 183.402 327.63 182.96L328.864 182.626C328.992 182.98 329.233 183.234 329.586 183.389C329.94 183.543 330.32 183.566 330.726 183.456C331.049 183.368 331.316 183.217 331.525 183.001C331.737 182.782 331.878 182.522 331.95 182.22C332.024 181.917 332.015 181.597 331.924 181.26C331.832 180.917 331.675 180.631 331.454 180.403C331.233 180.174 330.972 180.018 330.67 179.935C330.371 179.851 330.053 179.853 329.718 179.941C329.463 180.01 329.218 180.123 328.984 180.28C328.75 180.438 328.573 180.609 328.452 180.795L327.242 180.937L326.567 176.564L331.199 175.311L331.493 176.401L327.919 177.368L328.289 179.797L328.338 179.784C328.46 179.581 328.642 179.389 328.884 179.208C329.129 179.027 329.408 178.894 329.721 178.81C330.234 178.671 330.724 178.67 331.19 178.806C331.659 178.941 332.066 179.188 332.41 179.548C332.757 179.905 333.003 180.356 333.148 180.903C333.298 181.448 333.306 181.968 333.172 182.463C333.041 182.958 332.789 183.388 332.417 183.753C332.047 184.115 331.58 184.373 331.015 184.525Z" fill="black"/>
<rect x="380.728" y="154.903" width="58" height="23" rx="11.5" transform="rotate(-15.1306 380.728 154.903)" fill="#219653" fill-opacity="0.2"/>
<path d="M398.103 164.537L396.82 159.792L397.897 159.501L399.179 164.246L398.103 164.537ZM395.773 163.199L395.482 162.122L400.227 160.839L400.518 161.916L395.773 163.199ZM403.775 156.676L405.674 163.696L404.402 164.04L402.838 158.257L402.797 158.268L401.439 159.761L401.123 158.596L402.565 157.003L403.775 156.676ZM408.413 155.422L410.312 162.442L409.04 162.786L407.476 157.003L407.435 157.014L406.077 158.507L405.762 157.342L407.203 155.749L408.413 155.422ZM412.506 161.93C412.298 161.986 412.1 161.961 411.912 161.855C411.724 161.749 411.603 161.59 411.548 161.379C411.49 161.174 411.516 160.979 411.625 160.792C411.734 160.606 411.892 160.484 412.1 160.428C412.302 160.374 412.496 160.4 412.684 160.506C412.875 160.611 412.999 160.767 413.057 160.972C413.092 161.112 413.09 161.248 413.05 161.382C413.012 161.515 412.945 161.631 412.85 161.73C412.756 161.827 412.641 161.893 412.506 161.93ZM414.598 153.749L416.496 160.77L415.224 161.114L413.66 155.331L413.619 155.342L412.261 156.835L411.946 155.669L413.388 154.077L414.598 153.749ZM421.676 157.957L421.576 157.586C421.503 157.315 421.492 157.049 421.545 156.789C421.599 156.529 421.719 156.3 421.903 156.1C422.087 155.901 422.336 155.759 422.652 155.673C422.976 155.586 423.267 155.582 423.524 155.662C423.781 155.74 423.996 155.878 424.17 156.076C424.346 156.274 424.471 156.51 424.545 156.784L424.645 157.154C424.719 157.426 424.729 157.692 424.677 157.951C424.624 158.211 424.506 158.44 424.322 158.639C424.14 158.838 423.889 158.981 423.569 159.067C423.249 159.154 422.96 159.157 422.7 159.078C422.441 158.998 422.223 158.86 422.047 158.662C421.873 158.464 421.75 158.229 421.676 157.957ZM422.471 157.345L422.571 157.715C422.62 157.895 422.708 158.049 422.836 158.177C422.963 158.304 423.137 158.338 423.356 158.279C423.578 158.219 423.71 158.103 423.752 157.933C423.796 157.759 423.793 157.581 423.743 157.398L423.643 157.028C423.594 156.845 423.509 156.689 423.388 156.559C423.267 156.428 423.092 156.393 422.863 156.455C422.648 156.513 422.517 156.631 422.469 156.808C422.421 156.983 422.421 157.162 422.471 157.345ZM417.021 154.904L416.921 154.534C416.847 154.259 416.837 153.992 416.892 153.732C416.947 153.472 417.067 153.244 417.251 153.047C417.435 152.847 417.685 152.705 418 152.62C418.322 152.533 418.612 152.529 418.869 152.609C419.128 152.686 419.344 152.824 419.518 153.022C419.692 153.221 419.816 153.457 419.89 153.731L419.99 154.101C420.064 154.375 420.075 154.642 420.023 154.902C419.972 155.158 419.854 155.385 419.669 155.582C419.485 155.779 419.234 155.921 418.916 156.007C418.594 156.094 418.303 156.099 418.045 156.022C417.788 155.944 417.572 155.806 417.396 155.608C417.22 155.411 417.095 155.176 417.021 154.904ZM417.823 154.29L417.923 154.66C417.972 154.843 418.06 154.998 418.185 155.126C418.312 155.251 418.485 155.284 418.705 155.225C418.924 155.166 419.055 155.051 419.097 154.88C419.141 154.706 419.138 154.528 419.088 154.345L418.988 153.975C418.939 153.792 418.854 153.636 418.733 153.507C418.612 153.375 418.438 153.34 418.212 153.401C417.994 153.46 417.863 153.578 417.818 153.754C417.772 153.931 417.774 154.109 417.823 154.29ZM418.854 160.132L421.783 151.807L422.64 151.575L419.711 159.901L418.854 160.132Z" fill="#219653"/>
<path d="M79.4397 303.704L77.1618 295.279L80.3868 294.407C80.9957 294.242 81.5276 294.201 81.9826 294.284C82.4397 294.364 82.8128 294.541 83.102 294.816C83.3939 295.09 83.5962 295.436 83.7089 295.853C83.8016 296.195 83.8151 296.507 83.7495 296.786C83.6831 297.063 83.5593 297.307 83.3779 297.518C83.1966 297.729 82.9777 297.904 82.7212 298.044L82.7435 298.127C83.0468 298.062 83.3583 298.077 83.6777 298.17C83.9992 298.259 84.2885 298.431 84.5456 298.686C84.8027 298.94 84.989 299.281 85.1047 299.709C85.2226 300.145 85.2231 300.565 85.1061 300.971C84.9884 301.373 84.744 301.732 84.3731 302.047C84.0021 302.363 83.4944 302.607 82.85 302.781L79.4397 303.704ZM80.6211 302.016L82.2624 301.572C82.8164 301.422 83.1869 301.209 83.3739 300.931C83.5628 300.651 83.6121 300.343 83.5216 300.009C83.4541 299.759 83.3316 299.551 83.1541 299.384C82.9758 299.214 82.7573 299.103 82.4985 299.049C82.239 298.993 81.9516 299.007 81.6362 299.093L79.9537 299.547L80.6211 302.016ZM79.6567 298.449L81.1664 298.041C81.4297 297.97 81.6539 297.858 81.8392 297.705C82.0236 297.549 82.1521 297.365 82.2246 297.154C82.299 296.94 82.3029 296.71 82.2362 296.463C82.1479 296.136 81.9601 295.899 81.6726 295.75C81.3879 295.6 81.0206 295.586 80.5709 295.708L79.0283 296.125L79.6567 298.449ZM91.6983 291.348L93.9763 299.773L92.6188 300.14L87.0975 295.475L87.0276 295.494L88.5792 301.232L87.0531 301.645L84.7751 293.22L86.1408 292.851L91.6591 297.521L91.7332 297.501L90.1804 291.759L91.6983 291.348ZM95.6392 299.323L93.3613 290.899L96.5863 290.027C97.1952 289.862 97.7271 289.821 98.1821 289.904C98.6392 289.984 99.0123 290.161 99.3015 290.436C99.5934 290.71 99.7957 291.055 99.9084 291.472C100.001 291.815 100.015 292.126 99.949 292.406C99.8826 292.683 99.7588 292.927 99.5774 293.138C99.3961 293.349 99.1772 293.524 98.9207 293.664L98.943 293.746C99.2463 293.682 99.5578 293.696 99.8772 293.789C100.199 293.879 100.488 294.051 100.745 294.305C101.002 294.559 101.189 294.901 101.304 295.328C101.422 295.764 101.423 296.185 101.306 296.59C101.188 296.993 100.944 297.352 100.573 297.667C100.202 297.982 99.6939 298.227 99.0495 298.401L95.6392 299.323ZM96.8206 297.635L98.4619 297.192C99.0159 297.042 99.3864 296.828 99.5734 296.551C99.7623 296.271 99.8116 295.963 99.7211 295.628C99.6536 295.379 99.5311 295.171 99.3536 295.004C99.1753 294.834 98.9568 294.723 98.698 294.669C98.4385 294.613 98.1511 294.627 97.8357 294.712L96.1532 295.167L96.8206 297.635ZM95.8562 294.069L97.3659 293.661C97.6292 293.59 97.8535 293.477 98.0387 293.324C98.2231 293.168 98.3516 292.985 98.4241 292.774C98.4985 292.56 98.5024 292.329 98.4357 292.082C98.3474 291.756 98.1596 291.518 97.8721 291.37C97.5874 291.22 97.2202 291.206 96.7704 291.328L95.2278 291.745L95.8562 294.069Z" fill="black"/>
<path d="M153.771 283.605L151.493 275.18L154.718 274.308C155.327 274.144 155.859 274.103 156.314 274.186C156.771 274.265 157.144 274.442 157.433 274.717C157.725 274.992 157.927 275.337 158.04 275.754C158.133 276.097 158.146 276.408 158.081 276.688C158.014 276.965 157.89 277.208 157.709 277.419C157.528 277.63 157.309 277.806 157.052 277.946L157.075 278.028C157.378 277.964 157.689 277.978 158.009 278.071C158.33 278.161 158.62 278.333 158.877 278.587C159.134 278.841 159.32 279.182 159.436 279.61C159.554 280.046 159.554 280.467 159.437 280.872C159.32 281.275 159.075 281.634 158.704 281.949C158.333 282.264 157.826 282.509 157.181 282.683L153.771 283.605ZM154.952 281.917L156.594 281.473C157.148 281.323 157.518 281.11 157.705 280.833C157.894 280.552 157.943 280.245 157.853 279.91C157.785 279.66 157.663 279.452 157.485 279.285C157.307 279.116 157.088 279.004 156.83 278.951C156.57 278.894 156.283 278.909 155.967 278.994L154.285 279.449L154.952 281.917ZM153.988 278.351L155.498 277.942C155.761 277.871 155.985 277.759 156.17 277.606C156.355 277.45 156.483 277.267 156.556 277.056C156.63 276.841 156.634 276.611 156.567 276.364C156.479 276.038 156.291 275.8 156.004 275.651C155.719 275.502 155.352 275.488 154.902 275.609L153.359 276.026L153.988 278.351ZM161.318 281.564L159.61 275.246L161.099 274.843L162.808 281.161L161.318 281.564ZM160.116 274.146C159.88 274.21 159.656 274.187 159.444 274.077C159.231 273.963 159.094 273.796 159.034 273.574C158.973 273.349 159.007 273.135 159.135 272.933C159.262 272.728 159.443 272.593 159.679 272.53C159.918 272.465 160.142 272.49 160.352 272.604C160.565 272.714 160.701 272.882 160.762 273.107C160.822 273.329 160.789 273.542 160.662 273.747C160.537 273.949 160.355 274.082 160.116 274.146ZM164.827 276.643L165.828 280.345L164.339 280.747L162.63 274.429L164.054 274.044L164.344 275.118L164.418 275.098C164.468 274.705 164.623 274.361 164.885 274.066C165.15 273.771 165.518 273.56 165.99 273.432C166.426 273.314 166.831 273.305 167.205 273.404C167.581 273.502 167.907 273.704 168.181 274.01C168.457 274.314 168.663 274.72 168.796 275.225L169.884 279.248L168.395 279.651L167.369 275.858C167.255 275.436 167.056 275.135 166.772 274.956C166.491 274.776 166.159 274.737 165.775 274.841C165.514 274.912 165.298 275.032 165.126 275.202C164.956 275.369 164.843 275.574 164.785 275.819C164.731 276.064 164.745 276.338 164.827 276.643ZM173.251 278.475C172.85 278.583 172.47 278.609 172.111 278.553C171.753 278.494 171.443 278.348 171.18 278.116C170.92 277.883 170.734 277.56 170.622 277.146C170.526 276.789 170.512 276.477 170.581 276.208C170.649 275.939 170.778 275.704 170.968 275.503C171.158 275.301 171.386 275.127 171.652 274.978C171.92 274.826 172.203 274.692 172.501 274.576C172.861 274.438 173.152 274.322 173.374 274.23C173.596 274.135 173.75 274.04 173.836 273.946C173.924 273.849 173.949 273.729 173.911 273.586L173.904 273.561C173.82 273.251 173.664 273.036 173.434 272.916C173.204 272.796 172.916 272.782 172.571 272.876C172.206 272.974 171.938 273.132 171.767 273.349C171.599 273.565 171.508 273.791 171.492 274.028L170.048 274.207C170.054 273.793 170.148 273.423 170.331 273.097C170.513 272.768 170.769 272.49 171.099 272.263C171.428 272.032 171.813 271.858 172.255 271.738C172.559 271.656 172.872 271.61 173.193 271.599C173.514 271.589 173.821 271.633 174.115 271.73C174.408 271.824 174.668 271.991 174.895 272.23C175.124 272.468 175.295 272.797 175.409 273.216L176.552 277.445L175.121 277.832L174.886 276.964L174.837 276.977C174.794 277.177 174.711 277.376 174.588 277.575C174.467 277.769 174.295 277.946 174.074 278.106C173.854 278.263 173.58 278.386 173.251 278.475ZM173.341 277.276C173.64 277.195 173.884 277.066 174.071 276.889C174.258 276.709 174.383 276.504 174.448 276.275C174.515 276.045 174.517 275.813 174.454 275.58L174.253 274.835C174.217 274.886 174.147 274.944 174.043 275.007C173.943 275.069 173.827 275.132 173.696 275.193C173.566 275.255 173.436 275.314 173.307 275.369C173.178 275.425 173.066 275.473 172.971 275.513C172.757 275.603 172.571 275.707 172.414 275.823C172.257 275.939 172.145 276.072 172.077 276.223C172.008 276.371 171.999 276.541 172.051 276.733C172.125 277.007 172.282 277.187 172.52 277.273C172.758 277.359 173.032 277.36 173.341 277.276ZM178.538 272.935L179.539 276.637L178.05 277.04L176.341 270.722L177.764 270.337L178.055 271.41L178.129 271.39C178.179 270.997 178.334 270.654 178.596 270.359C178.861 270.064 179.229 269.853 179.7 269.725C180.136 269.607 180.541 269.598 180.915 269.697C181.292 269.795 181.618 269.997 181.891 270.302C182.168 270.607 182.373 271.012 182.507 271.518L183.595 275.541L182.106 275.943L181.08 272.151C180.966 271.728 180.767 271.427 180.483 271.248C180.202 271.068 179.869 271.03 179.485 271.134C179.225 271.204 179.009 271.325 178.837 271.495C178.667 271.661 178.553 271.867 178.496 272.112C178.442 272.356 178.455 272.631 178.538 272.935ZM187.898 274.51C187.267 274.68 186.688 274.688 186.161 274.533C185.636 274.378 185.186 274.089 184.81 273.667C184.436 273.242 184.162 272.709 183.99 272.07C183.816 271.429 183.786 270.829 183.9 270.271C184.014 269.711 184.258 269.233 184.634 268.837C185.011 268.438 185.509 268.154 186.126 267.988C186.639 267.849 187.118 267.821 187.564 267.903C188.012 267.982 188.401 268.161 188.729 268.44C189.057 268.717 189.299 269.078 189.455 269.524L188.031 269.909C187.892 269.62 187.686 269.404 187.414 269.259C187.145 269.111 186.83 269.086 186.471 269.183C186.167 269.266 185.922 269.42 185.736 269.647C185.549 269.871 185.433 270.153 185.386 270.492C185.342 270.83 185.378 271.212 185.493 271.637C185.609 272.068 185.772 272.421 185.982 272.697C186.191 272.97 186.432 273.159 186.705 273.265C186.98 273.367 187.272 273.377 187.582 273.293C187.802 273.233 187.987 273.139 188.137 273.01C188.29 272.878 188.403 272.716 188.478 272.525C188.553 272.334 188.582 272.119 188.564 271.879L189.988 271.495C190.073 271.951 190.048 272.383 189.914 272.79C189.779 273.195 189.542 273.547 189.202 273.848C188.862 274.146 188.427 274.366 187.898 274.51ZM194.625 272.691C193.991 272.862 193.409 272.878 192.877 272.74C192.347 272.597 191.893 272.317 191.515 271.898C191.136 271.477 190.857 270.936 190.679 270.275C190.503 269.625 190.472 269.021 190.586 268.463C190.702 267.902 190.947 267.424 191.32 267.029C191.692 266.631 192.179 266.351 192.783 266.188C193.172 266.082 193.557 266.046 193.936 266.079C194.318 266.108 194.677 266.217 195.013 266.405C195.353 266.593 195.654 266.868 195.916 267.23C196.178 267.589 196.384 268.045 196.534 268.599L196.657 269.056L191.478 270.456L191.207 269.452L194.958 268.438C194.878 268.153 194.748 267.916 194.567 267.727C194.386 267.535 194.169 267.403 193.918 267.333C193.669 267.262 193.402 267.265 193.117 267.342C192.813 267.424 192.565 267.571 192.375 267.781C192.184 267.989 192.056 268.229 191.992 268.503C191.929 268.773 191.935 269.049 192.009 269.333L192.245 270.209C192.345 270.576 192.497 270.873 192.703 271.1C192.908 271.325 193.15 271.474 193.429 271.549C193.707 271.62 194.008 271.613 194.332 271.525C194.549 271.467 194.736 271.383 194.896 271.276C195.054 271.165 195.181 271.032 195.278 270.876C195.374 270.721 195.431 270.545 195.449 270.349L196.881 270.129C196.893 270.521 196.812 270.887 196.64 271.228C196.469 271.565 196.213 271.861 195.873 272.115C195.532 272.366 195.116 272.558 194.625 272.691Z" fill="#5E6E78"/>
<path d="M322.429 238.613L319.582 228.082L320.256 227.9L323.104 238.431L322.429 238.613ZM322.575 230.778C322.426 230.4 322.163 230.147 321.787 230.02C321.411 229.889 320.981 229.889 320.498 230.019C320.153 230.113 319.869 230.248 319.646 230.426C319.423 230.602 319.267 230.803 319.178 231.03C319.091 231.253 319.08 231.484 319.145 231.723C319.199 231.923 319.292 232.083 319.425 232.203C319.56 232.323 319.718 232.411 319.898 232.468C320.08 232.522 320.269 232.558 320.465 232.575C320.661 232.59 320.846 232.596 321.022 232.593L321.902 232.584C322.189 232.577 322.489 232.592 322.802 232.628C323.114 232.664 323.416 232.741 323.707 232.86C323.998 232.978 324.255 233.153 324.476 233.385C324.7 233.615 324.864 233.92 324.966 234.298C325.095 234.776 325.086 235.233 324.94 235.67C324.796 236.106 324.519 236.494 324.111 236.834C323.705 237.173 323.173 237.432 322.515 237.61C321.885 237.78 321.312 237.828 320.797 237.752C320.282 237.676 319.845 237.49 319.485 237.193C319.124 236.893 318.861 236.493 318.697 235.994L319.972 235.649C320.079 235.946 320.246 236.173 320.474 236.33C320.704 236.482 320.968 236.571 321.266 236.597C321.566 236.619 321.879 236.585 322.206 236.497C322.565 236.4 322.869 236.257 323.119 236.069C323.37 235.878 323.549 235.659 323.656 235.412C323.762 235.162 323.778 234.901 323.704 234.626C323.636 234.377 323.51 234.192 323.324 234.071C323.141 233.95 322.915 233.87 322.646 233.831C322.379 233.791 322.084 233.772 321.761 233.775L320.692 233.772C319.968 233.771 319.36 233.645 318.868 233.396C318.38 233.145 318.056 232.726 317.898 232.14C317.766 231.654 317.783 231.195 317.949 230.762C318.114 230.328 318.395 229.951 318.79 229.629C319.185 229.305 319.665 229.066 320.23 228.913C320.8 228.759 321.331 228.723 321.821 228.805C322.314 228.887 322.734 229.069 323.081 229.352C323.428 229.632 323.668 229.997 323.801 230.446L322.575 230.778ZM326.999 236.247L326.75 235.326L328.802 231.601C329.02 231.198 329.195 230.849 329.327 230.554C329.461 230.256 329.548 229.984 329.588 229.738C329.627 229.492 329.613 229.245 329.547 228.999C329.471 228.719 329.34 228.495 329.153 228.328C328.966 228.158 328.744 228.049 328.487 228.001C328.229 227.95 327.957 227.963 327.672 228.04C327.37 228.122 327.123 228.254 326.932 228.439C326.74 228.623 326.615 228.844 326.555 229.101C326.495 229.359 326.506 229.638 326.587 229.94L325.374 230.268C325.235 229.755 325.232 229.275 325.364 228.827C325.496 228.38 325.739 227.995 326.093 227.672C326.447 227.347 326.886 227.114 327.409 226.972C327.939 226.829 328.433 226.808 328.894 226.911C329.356 227.009 329.75 227.209 330.075 227.509C330.4 227.807 330.624 228.182 330.746 228.635C330.83 228.947 330.854 229.269 330.817 229.6C330.783 229.93 330.671 230.318 330.483 230.763C330.293 231.205 330.013 231.757 329.641 232.416L328.44 234.621L328.457 234.683L332.25 233.658L332.545 234.748L326.999 236.247ZM337.076 233.646C336.699 233.742 336.31 233.774 335.91 233.741C335.512 233.707 335.124 233.577 334.745 233.349C334.365 233.122 334.016 232.774 333.698 232.304C333.382 231.833 333.12 231.209 332.91 230.433C332.711 229.698 332.607 229.026 332.598 228.416C332.592 227.806 332.675 227.267 332.846 226.8C333.016 226.33 333.269 225.939 333.606 225.628C333.942 225.316 334.355 225.094 334.843 224.962C335.345 224.826 335.817 224.805 336.26 224.897C336.703 224.989 337.092 225.176 337.427 225.46C337.765 225.742 338.028 226.096 338.214 226.523L336.959 226.862C336.779 226.534 336.533 226.293 336.22 226.139C335.908 225.985 335.549 225.963 335.143 226.073C334.526 226.24 334.117 226.638 333.917 227.269C333.72 227.9 333.749 228.694 334.005 229.652L334.067 229.635C334.148 229.357 334.271 229.106 334.437 228.881C334.605 228.654 334.808 228.459 335.047 228.297C335.288 228.132 335.555 228.01 335.848 227.93C336.337 227.798 336.81 227.798 337.27 227.93C337.731 228.058 338.136 228.299 338.485 228.652C338.833 229.005 339.08 229.451 339.226 229.988C339.371 230.526 339.381 231.045 339.254 231.547C339.131 232.049 338.884 232.486 338.514 232.86C338.144 233.231 337.664 233.493 337.076 233.646ZM336.783 232.578C337.106 232.49 337.374 232.332 337.586 232.104C337.798 231.876 337.942 231.608 338.017 231.299C338.093 230.99 338.086 230.67 337.996 230.338C337.908 230.015 337.756 229.739 337.539 229.513C337.324 229.285 337.07 229.127 336.775 229.039C336.483 228.951 336.177 228.949 335.856 229.036C335.612 229.102 335.398 229.21 335.215 229.36C335.035 229.508 334.889 229.686 334.777 229.893C334.665 230.1 334.593 230.323 334.56 230.561C334.529 230.796 334.546 231.031 334.61 231.267C334.695 231.582 334.847 231.855 335.065 232.084C335.285 232.313 335.545 232.475 335.845 232.571C336.147 232.663 336.459 232.665 336.783 232.578ZM341.752 232.258L343.463 223.991L343.446 223.929L339.193 225.079L338.898 223.989L344.468 222.483L344.773 223.61L343.081 231.899L341.752 232.258Z" fill="black"/>
<rect x="393.518" y="202.204" width="58" height="23" rx="11.5" transform="rotate(-15.1306 393.518 202.204)" fill="#219653" fill-opacity="0.2"/>
<path d="M411.525 211.667L410.242 206.923L411.318 206.632L412.601 211.376L411.525 211.667ZM409.195 210.329L408.904 209.253L413.648 207.97L413.939 209.046L409.195 210.329ZM418.837 211C418.5 211.088 418.156 211.119 417.806 211.091C417.454 211.061 417.115 210.95 416.789 210.759C416.462 210.565 416.164 210.272 415.896 209.878C415.627 209.483 415.407 208.962 415.235 208.317C415.072 207.716 414.991 207.163 414.992 206.657C414.993 206.152 415.069 205.705 415.221 205.315C415.373 204.924 415.595 204.596 415.886 204.333C416.181 204.07 416.538 203.881 416.959 203.768C417.4 203.648 417.814 203.63 418.201 203.711C418.591 203.792 418.932 203.955 419.224 204.2C419.515 204.442 419.737 204.745 419.889 205.109L418.638 205.447C418.501 205.195 418.311 205.016 418.069 204.909C417.829 204.8 417.558 204.786 417.256 204.868C416.769 205 416.452 205.312 416.303 205.806C416.157 206.3 416.182 206.916 416.38 207.654L416.428 207.641C416.485 207.41 416.584 207.198 416.723 207.006C416.862 206.814 417.034 206.649 417.237 206.51C417.441 206.369 417.669 206.265 417.921 206.197C418.332 206.085 418.728 206.084 419.108 206.192C419.49 206.3 419.824 206.5 420.109 206.793C420.394 207.084 420.595 207.451 420.712 207.895C420.839 208.356 420.846 208.8 420.733 209.225C420.62 209.648 420.402 210.016 420.079 210.329C419.757 210.642 419.342 210.865 418.837 211ZM418.552 209.973C418.801 209.906 419.007 209.785 419.171 209.611C419.335 209.436 419.446 209.231 419.505 208.994C419.563 208.758 419.557 208.512 419.486 208.257C419.42 208.005 419.304 207.792 419.137 207.619C418.972 207.445 418.776 207.325 418.55 207.259C418.324 207.193 418.086 207.193 417.837 207.26C417.652 207.31 417.489 207.393 417.348 207.507C417.207 207.621 417.094 207.757 417.009 207.915C416.924 208.07 416.869 208.239 416.845 208.422C416.823 208.603 416.835 208.786 416.883 208.971C416.951 209.215 417.069 209.425 417.237 209.6C417.405 209.776 417.603 209.899 417.833 209.969C418.063 210.039 418.303 210.041 418.552 209.973ZM422.996 209.853C422.788 209.909 422.59 209.884 422.402 209.778C422.214 209.672 422.093 209.514 422.038 209.303C421.98 209.098 422.006 208.902 422.115 208.715C422.224 208.529 422.382 208.408 422.59 208.351C422.791 208.297 422.986 208.323 423.174 208.429C423.364 208.535 423.489 208.69 423.546 208.895C423.582 209.035 423.58 209.172 423.54 209.305C423.502 209.438 423.435 209.554 423.34 209.653C423.246 209.75 423.131 209.816 422.996 209.853ZM425.028 209.223L426.416 202.505L426.403 202.457L422.937 203.394L422.65 202.332L427.432 201.039L427.726 202.125L426.348 208.866L425.028 209.223ZM433.835 205.429L433.735 205.059C433.661 204.787 433.651 204.521 433.703 204.261C433.758 204.001 433.877 203.772 434.061 203.572C434.245 203.373 434.495 203.231 434.81 203.145C435.135 203.058 435.426 203.054 435.683 203.134C435.939 203.212 436.154 203.35 436.328 203.548C436.504 203.746 436.629 203.982 436.703 204.256L436.803 204.626C436.877 204.898 436.887 205.164 436.835 205.423C436.783 205.683 436.664 205.912 436.48 206.111C436.299 206.31 436.048 206.453 435.728 206.539C435.408 206.626 435.118 206.629 434.859 206.55C434.599 206.47 434.382 206.332 434.206 206.134C434.032 205.936 433.908 205.701 433.835 205.429ZM434.629 204.817L434.729 205.187C434.778 205.367 434.866 205.521 434.994 205.649C435.122 205.776 435.295 205.81 435.515 205.751C435.736 205.691 435.868 205.575 435.91 205.405C435.954 205.231 435.951 205.053 435.902 204.87L435.802 204.5C435.752 204.317 435.667 204.161 435.546 204.032C435.425 203.9 435.25 203.865 435.022 203.927C434.807 203.985 434.675 204.103 434.628 204.28C434.579 204.455 434.58 204.634 434.629 204.817ZM429.18 202.376L429.08 202.006C429.006 201.732 428.996 201.464 429.051 201.204C429.105 200.944 429.225 200.716 429.41 200.519C429.594 200.319 429.843 200.177 430.159 200.092C430.481 200.005 430.771 200.001 431.028 200.081C431.286 200.158 431.503 200.296 431.676 200.494C431.85 200.693 431.974 200.929 432.048 201.203L432.148 201.573C432.223 201.848 432.233 202.114 432.181 202.374C432.13 202.63 432.012 202.857 431.828 203.054C431.643 203.251 431.392 203.393 431.074 203.479C430.752 203.566 430.462 203.571 430.203 203.494C429.947 203.416 429.73 203.278 429.554 203.08C429.378 202.883 429.253 202.648 429.18 202.376ZM429.981 201.762L430.081 202.132C430.131 202.315 430.218 202.47 430.344 202.598C430.471 202.724 430.644 202.756 430.863 202.697C431.083 202.638 431.213 202.523 431.255 202.352C431.299 202.178 431.296 202 431.247 201.817L431.147 201.447C431.097 201.264 431.012 201.108 430.891 200.979C430.77 200.847 430.596 200.812 430.37 200.873C430.153 200.932 430.022 201.05 429.976 201.226C429.931 201.403 429.932 201.581 429.981 201.762ZM431.013 207.604L433.941 199.279L434.798 199.047L431.87 207.373L431.013 207.604Z" fill="#219653"/>
<path d="M52.2598 228.698L427.334 127.28" stroke="black" stroke-opacity="0.05" stroke-width="0.4"/>
<path d="M65.5723 277.93L440.647 176.512" stroke="black" stroke-opacity="0.05" stroke-width="0.4"/>
<path d="M78.8838 327.162L453.958 225.744" stroke="black" stroke-opacity="0.05" stroke-width="0.4"/>
<path d="M92.1963 376.394L467.271 274.976" stroke="black" stroke-opacity="0.05" stroke-width="0.4"/>
<path d="M105.508 425.626L480.582 324.208" stroke="black" stroke-opacity="0.05" stroke-width="0.4"/>
<path d="M35.1581 143.885L34.5815 141.753L45.7844 138.724L46.3609 140.856L42.021 142.029L45.2411 153.938L42.7181 154.621L39.498 142.712L35.1581 143.885ZM54.753 151.587C53.7245 151.865 52.7721 151.88 51.8956 151.631C51.019 151.383 50.2628 150.908 49.6269 150.207C48.9955 149.505 48.5328 148.609 48.2387 147.522C47.9445 146.434 47.8925 145.425 48.0827 144.496C48.2774 143.565 48.6906 142.772 49.3224 142.115C49.9543 141.459 50.7844 140.992 51.8128 140.713C52.8412 140.435 53.7937 140.421 54.6702 140.669C55.5467 140.918 56.3012 141.396 56.9338 142.103C57.571 142.808 58.0366 143.705 58.3308 144.793C58.6249 145.881 58.674 146.888 58.4781 147.814C58.2867 148.738 57.8751 149.529 57.2433 150.185C56.6115 150.842 55.7814 151.309 54.753 151.587ZM54.2291 149.595C54.7867 149.444 55.2115 149.165 55.5035 148.758C55.7942 148.346 55.9606 147.854 56.0025 147.284C56.049 146.712 55.9858 146.106 55.8128 145.466C55.6385 144.822 55.3872 144.264 55.0589 143.794C54.734 143.318 54.3421 142.975 53.8832 142.766C53.4244 142.556 52.9162 142.527 52.3585 142.677C51.7872 142.832 51.3539 143.116 51.0585 143.529C50.7678 143.941 50.5998 144.436 50.5545 145.012C50.5126 145.582 50.5787 146.19 50.753 146.834C50.926 147.474 51.1744 148.03 51.4981 148.502C51.8264 148.972 52.22 149.312 52.6788 149.521C53.141 149.725 53.6577 149.75 54.2291 149.595ZM62.9177 153.397L59.0024 138.917L61.4432 138.257L61.9141 139.998L62.058 139.959C62.1168 139.669 62.2238 139.348 62.3791 138.997C62.5331 138.641 62.7811 138.307 63.1231 137.994C63.4639 137.676 63.9429 137.434 64.5599 137.267C65.3735 137.047 66.1633 137.056 66.9294 137.296C67.6988 137.529 68.3849 137.998 68.9876 138.703C69.5936 139.403 70.0548 140.338 70.3712 141.508C70.6839 142.664 70.7599 143.698 70.5993 144.61C70.4387 145.521 70.089 146.278 69.5503 146.88C69.0117 147.482 68.3287 147.894 67.5014 148.118C66.8981 148.281 66.3704 148.316 65.9183 148.222C65.4663 148.129 65.0809 147.973 64.762 147.755C64.4464 147.531 64.1878 147.31 63.986 147.089L63.8832 147.117L65.3996 152.726L62.9177 153.397ZM62.8601 143.524C63.0442 144.205 63.3015 144.776 63.6319 145.236C63.9669 145.694 64.3561 146.018 64.7996 146.207C65.2465 146.391 65.7327 146.411 66.2583 146.269C66.8068 146.121 67.2266 145.85 67.5178 145.458C67.8077 145.06 67.9771 144.581 68.0261 144.018C68.0784 143.45 68.0156 142.836 67.8376 142.178C67.6609 141.524 67.4102 140.969 67.0856 140.513C66.761 140.056 66.3747 139.734 65.9266 139.546C65.4785 139.358 64.9779 139.339 64.4249 139.488C63.8947 139.632 63.4822 139.893 63.1873 140.272C62.8925 140.651 62.7171 141.118 62.661 141.672C62.6096 142.226 62.6759 142.843 62.8601 143.524ZM85.6375 132.759C85.4232 132.42 85.1759 132.131 84.8957 131.893C84.6188 131.649 84.3125 131.46 83.9768 131.325C83.6458 131.189 83.2877 131.116 82.9028 131.108C82.5166 131.094 82.1133 131.145 81.6928 131.258C80.9386 131.462 80.318 131.834 79.831 132.372C79.3439 132.911 79.0308 133.594 78.8915 134.422C78.7556 135.243 78.8298 136.18 79.114 137.231C79.4007 138.291 79.8104 139.144 80.3431 139.79C80.8757 140.436 81.491 140.87 82.189 141.093C82.8858 141.312 83.6273 141.315 84.4134 141.102C85.1265 140.91 85.7064 140.606 86.1533 140.191C86.6048 139.774 86.9043 139.276 87.0517 138.697C87.1979 138.113 87.1789 137.48 86.9948 136.799L87.5948 136.733L83.7828 137.764L83.2452 135.775L88.9426 134.235L89.3986 135.921C89.7237 137.123 89.7489 138.233 89.4743 139.249C89.1996 140.264 88.6787 141.131 87.9113 141.849C87.1428 142.562 86.178 143.075 85.017 143.389C83.7235 143.739 82.5092 143.756 81.3741 143.44C80.2424 143.118 79.2571 142.494 78.4181 141.568C77.5826 140.637 76.9645 139.431 76.5641 137.95C76.2576 136.816 76.1438 135.76 76.2228 134.783C76.3063 133.804 76.5543 132.925 76.9667 132.146C77.3778 131.363 77.9303 130.704 78.6242 130.168C79.3168 129.627 80.1225 129.233 81.0412 128.985C81.8182 128.774 82.5735 128.693 83.3072 128.74C84.0397 128.782 84.7227 128.941 85.3562 129.216C85.9943 129.489 86.5597 129.866 87.0524 130.346C87.5451 130.826 87.9374 131.397 88.2291 132.059L85.6375 132.759ZM96.3677 140.342C95.7004 140.523 95.0672 140.566 94.4681 140.473C93.8724 140.374 93.3555 140.132 92.9174 139.745C92.4839 139.357 92.1738 138.818 91.9872 138.128C91.8265 137.533 91.8034 137.012 91.9177 136.565C92.032 136.117 92.2474 135.725 92.5637 135.389C92.8801 135.054 93.2598 134.762 93.7031 134.515C94.1496 134.262 94.6214 134.038 95.1185 133.845C95.7183 133.614 96.2033 133.422 96.5737 133.268C96.9428 133.109 97.1993 132.951 97.3434 132.795C97.4907 132.632 97.5323 132.432 97.468 132.194L97.4569 132.153C97.3172 131.637 97.056 131.278 96.6731 131.078C96.2902 130.877 95.8109 130.855 95.2349 131.01C94.627 131.175 94.1807 131.438 93.8958 131.799C93.6156 132.159 93.4626 132.537 93.4368 132.931L91.0305 133.229C91.0403 132.539 91.1973 131.923 91.5017 131.38C91.8048 130.832 92.2312 130.368 92.781 129.989C93.3296 129.605 93.9718 129.314 94.7077 129.115C95.2151 128.978 95.7362 128.901 96.2711 128.884C96.806 128.866 97.3185 128.939 97.8086 129.101C98.2975 129.258 98.7306 129.535 99.1081 129.934C99.4901 130.331 99.7756 130.879 99.9647 131.578L101.87 138.626L99.4846 139.271L99.0934 137.825L99.0111 137.847C98.9394 138.18 98.801 138.512 98.596 138.842C98.3943 139.166 98.1088 139.462 97.7394 139.729C97.3734 139.989 96.9162 140.194 96.3677 140.342ZM96.519 138.344C97.0172 138.21 97.4226 137.994 97.7351 137.699C98.0464 137.399 98.2558 137.058 98.3634 136.676C98.4755 136.292 98.479 135.906 98.374 135.518L98.0384 134.277C97.978 134.362 97.8615 134.457 97.689 134.563C97.521 134.667 97.3283 134.77 97.1109 134.873C96.8934 134.976 96.6771 135.074 96.4618 135.167C96.2465 135.259 96.0596 135.339 95.9013 135.406C95.5446 135.557 95.2355 135.729 94.9739 135.922C94.7122 136.115 94.5247 136.338 94.4112 136.589C94.2964 136.836 94.2823 137.12 94.3688 137.439C94.4924 137.897 94.7526 138.197 95.1493 138.339C95.5459 138.482 96.0025 138.484 96.519 138.344ZM104.366 137.951L101.519 127.421L104 126.749L106.848 137.28L104.366 137.951ZM102.362 125.588C101.969 125.695 101.596 125.656 101.242 125.472C100.887 125.284 100.659 125.004 100.559 124.634C100.458 124.259 100.514 123.903 100.727 123.566C100.938 123.224 101.241 123 101.634 122.894C102.031 122.787 102.405 122.828 102.756 123.017C103.11 123.201 103.337 123.481 103.439 123.855C103.539 124.226 103.483 124.582 103.271 124.923C103.063 125.259 102.76 125.481 102.362 125.588ZM110.214 129.749L111.882 135.919L109.4 136.59L106.553 126.059L108.925 125.418L109.409 127.207L109.532 127.174C109.615 126.519 109.874 125.946 110.311 125.455C110.752 124.963 111.365 124.611 112.151 124.398C112.878 124.202 113.553 124.186 114.176 124.351C114.804 124.515 115.347 124.851 115.803 125.361C116.264 125.869 116.606 126.544 116.829 127.386L118.642 134.091L116.16 134.762L114.451 128.441C114.261 127.737 113.929 127.236 113.456 126.937C112.987 126.637 112.433 126.574 111.793 126.747C111.359 126.864 110.998 127.064 110.712 127.348C110.429 127.625 110.24 127.968 110.144 128.377C110.053 128.784 110.076 129.241 110.214 129.749ZM125.883 132.354C124.827 132.64 123.856 132.667 122.969 132.436C122.086 132.199 121.33 131.731 120.699 131.034C120.068 130.331 119.603 129.429 119.306 128.328C119.013 127.244 118.961 126.238 119.151 125.309C119.345 124.374 119.752 123.577 120.374 122.918C120.994 122.255 121.807 121.788 122.812 121.516C123.461 121.34 124.102 121.28 124.735 121.334C125.371 121.383 125.97 121.564 126.53 121.879C127.096 122.192 127.597 122.65 128.035 123.252C128.471 123.851 128.814 124.611 129.064 125.535L129.27 126.296L120.638 128.63L120.186 126.957L126.438 125.266C126.305 124.792 126.088 124.397 125.787 124.081C125.484 123.761 125.124 123.542 124.704 123.425C124.29 123.306 123.845 123.311 123.369 123.44C122.862 123.577 122.45 123.821 122.133 124.172C121.814 124.518 121.601 124.918 121.494 125.374C121.39 125.824 121.399 126.285 121.522 126.757L121.917 128.217C122.083 128.83 122.337 129.325 122.679 129.704C123.021 130.077 123.424 130.326 123.889 130.451C124.353 130.57 124.855 130.557 125.394 130.411C125.755 130.314 126.069 130.175 126.334 129.996C126.598 129.811 126.81 129.59 126.971 129.33C127.131 129.071 127.226 128.778 127.256 128.451L129.643 128.085C129.663 128.737 129.528 129.348 129.241 129.916C128.956 130.478 128.53 130.971 127.963 131.394C127.394 131.813 126.701 132.133 125.883 132.354ZM132.61 130.315L129.762 119.784L132.169 119.133L132.643 120.888L132.753 120.858C132.78 120.199 132.983 119.641 133.36 119.186C133.741 118.725 134.233 118.413 134.836 118.25C134.973 118.213 135.128 118.178 135.301 118.146C135.477 118.108 135.625 118.085 135.746 118.077L136.363 120.36C136.248 120.352 136.073 120.365 135.837 120.4C135.604 120.428 135.383 120.471 135.172 120.528C134.72 120.65 134.34 120.859 134.032 121.153C133.727 121.441 133.518 121.784 133.405 122.183C133.292 122.581 133.296 123.005 133.418 123.452L135.092 129.643L132.61 130.315Z" fill="black"/>
<rect x="266.317" y="72.4067" width="39.3659" height="28.2276" rx="7.39837" transform="rotate(-15.1306 266.317 72.4067)" fill="#F2F8FF"/>
<path d="M285.118 85.0515L283.683 85.4395L284.289 77.313L285.948 76.8643L290.571 83.5771L289.136 83.9651L285.559 78.6025L285.501 78.6182L285.118 85.0515ZM284.378 82.1294L288.291 81.0714L288.583 82.1511L284.67 83.2091L284.378 82.1294ZM290.795 75.5537L292.802 82.9739L291.49 83.3285L289.484 75.9084L290.795 75.5537ZM293.456 74.8344L295.462 82.2546L294.15 82.6092L292.144 75.1891L293.456 74.8344Z" fill="#004E4D"/>
<rect width="44.4525" height="28" transform="translate(310.553 60.4458) rotate(-15.1306)" fill="white"/>
<rect x="310.553" y="60.4458" width="46.3659" height="28.2276" rx="7.39837" transform="rotate(-15.1306 310.553 60.4458)" fill="#F8F8F9"/>
<path d="M330.672 72.7341L328.157 73.414L326.151 65.9938L328.716 65.3002C329.453 65.101 330.126 65.0784 330.735 65.2325C331.346 65.3835 331.869 65.697 332.304 66.1731C332.738 66.6492 333.06 67.2724 333.268 68.043C333.477 68.8159 333.513 69.519 333.376 70.1523C333.241 70.7849 332.944 71.3225 332.486 71.7653C332.03 72.2074 331.425 72.5303 330.672 72.7341ZM329.187 71.8875L330.292 71.5887C330.809 71.4489 331.215 71.2381 331.509 70.9563C331.803 70.6721 331.986 70.3181 332.058 69.8943C332.129 69.468 332.088 68.9711 331.935 68.4035C331.781 67.8359 331.567 67.3884 331.292 67.061C331.016 66.7312 330.683 66.5194 330.292 66.4255C329.903 66.3285 329.457 66.348 328.954 66.4838L327.81 66.7934L329.187 71.8875ZM337.985 70.8731C337.427 71.024 336.914 71.0384 336.446 70.9162C335.979 70.791 335.579 70.544 335.246 70.1753C334.913 69.8041 334.667 69.3274 334.51 68.7453C334.355 68.1729 334.328 67.6411 334.428 67.1499C334.53 66.6557 334.746 66.2346 335.074 65.8866C335.402 65.5362 335.831 65.2892 336.363 65.1455C336.706 65.0527 337.044 65.0208 337.379 65.0496C337.715 65.0753 338.031 65.1713 338.328 65.3374C338.626 65.5028 338.891 65.7448 339.123 66.0633C339.353 66.3794 339.535 66.7814 339.666 67.2693L339.775 67.6715L335.214 68.9049L334.975 68.0208L338.279 67.1274C338.209 66.8768 338.094 66.6681 337.935 66.5012C337.775 66.3319 337.584 66.2162 337.363 66.1543C337.144 66.0917 336.908 66.0944 336.657 66.1623C336.389 66.2348 336.171 66.3637 336.004 66.549C335.835 66.7319 335.723 66.9437 335.666 67.1846C335.611 67.4223 335.616 67.6659 335.681 67.9154L335.89 68.6871C335.977 69.0108 336.111 69.2725 336.293 69.4724C336.473 69.6699 336.686 69.8015 336.932 69.8672C337.177 69.9305 337.442 69.9236 337.727 69.8465C337.918 69.7949 338.084 69.7217 338.224 69.6267C338.363 69.5294 338.476 69.4122 338.56 69.2752C338.645 69.1383 338.695 68.9834 338.711 68.8108L339.973 68.6173C339.983 68.9619 339.912 69.2843 339.76 69.5846C339.61 69.8819 339.384 70.1423 339.085 70.366C338.784 70.5872 338.418 70.7562 337.985 70.8731ZM342.854 63.468L343.129 64.4825L339.839 65.372L339.564 64.3576L342.854 63.468ZM341.892 69.7003L340.245 63.6098C340.144 63.2354 340.137 62.9029 340.224 62.6124C340.314 62.3211 340.474 62.0783 340.703 61.8839C340.933 61.6896 341.209 61.5489 341.53 61.4621C341.757 61.4007 341.964 61.3643 342.15 61.3528C342.336 61.3414 342.475 61.3387 342.568 61.3448L342.581 62.4298C342.521 62.428 342.447 62.43 342.357 62.4359C342.268 62.4395 342.171 62.4553 342.067 62.4834C341.823 62.5493 341.666 62.6552 341.597 62.801C341.529 62.9437 341.525 63.1238 341.584 63.3412L343.207 69.3447L341.892 69.7003ZM345.386 68.7554L343.881 63.1903L345.193 62.8356L346.698 68.4008L345.386 68.7554ZM344.327 62.2221C344.119 62.2783 343.922 62.2578 343.735 62.1606C343.547 62.061 343.427 61.9134 343.374 61.7177C343.321 61.5197 343.35 61.3316 343.463 61.1534C343.575 60.9728 343.734 60.8544 343.942 60.7983C344.152 60.7414 344.35 60.7631 344.535 60.8634C344.722 60.9606 344.842 61.1082 344.896 61.3063C344.949 61.5019 344.919 61.69 344.808 61.8706C344.697 62.0482 344.537 62.1653 344.327 62.2221Z" fill="black"/>
<rect width="45.4112" height="28" transform="translate(360.868 46.8408) rotate(-15.1306)" fill="white"/>
<rect x="360.868" y="46.8408" width="47.3659" height="28.2276" rx="7.39837" transform="rotate(-15.1306 360.868 46.8408)" fill="#F8F8F9"/>
<path d="M382.882 50.654L384.889 58.0741L383.693 58.3974L378.83 54.2886L378.769 54.3052L380.135 59.3595L378.791 59.7229L376.785 52.3028L377.987 51.9775L382.848 56.091L382.913 56.0734L381.545 51.0155L382.882 50.654ZM386.353 57.6781L384.347 50.258L389.101 48.9726L389.405 50.0994L385.996 51.0213L386.541 53.0357L389.624 52.2021L389.928 53.3288L386.845 54.1625L387.698 57.3147L386.353 57.6781ZM390.304 49.8565L389.999 48.7297L395.919 47.1289L396.224 48.2557L393.93 48.8758L395.632 55.1692L394.299 55.5297L392.597 49.2363L390.304 49.8565Z" fill="black"/>
<rect x="437.532" y="87.2302" width="1.93305" height="138" transform="rotate(-15.1306 437.532 87.2302)" fill="#F8F8F9"/>
<rect x="437.532" y="87.2302" width="1.93305" height="41.7339" transform="rotate(-15.1306 437.532 87.2302)" fill="#0060FF" fill-opacity="0.1"/>
<defs>
<filter id="filter0_d_2_2" x="607" y="126" width="95" height="95" filterUnits="userSpaceOnUse" color-interpolation-filters="sRGB">
<feFlood flood-opacity="0" result="BackgroundImageFix"/>
<feColorMatrix in="SourceAlpha" type="matrix" values="0 0 0 0 0 0 0 0 0 0 0 0 0 0 0 0 0 0 127 0" result="hardAlpha"/>
<feOffset dy="12"/>
<feGaussianBlur stdDeviation="10"/>
<feColorMatrix type="matrix" values="0 0 0 0 0.845833 0 0 0 0 0.651737 0 0 0 0 0.0775347 0 0 0 0.31 0"/>
<feBlend mode="normal" in2="BackgroundImageFix" result="effect1_dropShadow_2_2"/>
<feBlend mode="normal" in="SourceGraphic" in2="effect1_dropShadow_2_2" result="shape"/>
</filter>
<filter id="filter1_d_2_2" x="607" y="276" width="95" height="95" filterUnits="userSpaceOnUse" color-interpolation-filters="sRGB">
<feFlood flood-opacity="0" result="BackgroundImageFix"/>
<feColorMatrix in="SourceAlpha" type="matrix" values="0 0 0 0 0 0 0 0 0 0 0 0 0 0 0 0 0 0 127 0" result="hardAlpha"/>
<feOffset dy="12"/>
<feGaussianBlur stdDeviation="10"/>
<feColorMatrix type="matrix" values="0 0 0 0 0.845833 0 0 0 0 0.651737 0 0 0 0 0.0775347 0 0 0 0.31 0"/>
<feBlend mode="normal" in2="BackgroundImageFix" result="effect1_dropShadow_2_2"/>
<feBlend mode="normal" in="SourceGraphic" in2="effect1_dropShadow_2_2" result="shape"/>
</filter>
<filter id="filter2_d_2_2" x="524" y="126" width="95" height="95" filterUnits="userSpaceOnUse" color-interpolation-filters="sRGB">
<feFlood flood-opacity="0" result="BackgroundImageFix"/>
<feColorMatrix in="SourceAlpha" type="matrix" values="0 0 0 0 0 0 0 0 0 0 0 0 0 0 0 0 0 0 127 0" result="hardAlpha"/>
<feOffset dy="12"/>
<feGaussianBlur stdDeviation="10"/>
<feColorMatrix type="matrix" values="0 0 0 0 0.845833 0 0 0 0 0.651737 0 0 0 0 0.0775347 0 0 0 0.31 0"/>
<feBlend mode="normal" in2="BackgroundImageFix" result="effect1_dropShadow_2_2"/>
<feBlend mode="normal" in="SourceGraphic" in2="effect1_dropShadow_2_2" result="shape"/>
</filter>
<filter id="filter3_d_2_2" x="524" y="201" width="95" height="95" filterUnits="userSpaceOnUse" color-interpolation-filters="sRGB">
<feFlood flood-opacity="0" result="BackgroundImageFix"/>
<feColorMatrix in="SourceAlpha" type="matrix" values="0 0 0 0 0 0 0 0 0 0 0 0 0 0 0 0 0 0 127 0" result="hardAlpha"/>
<feOffset dy="12"/>
<feGaussianBlur stdDeviation="10"/>
<feColorMatrix type="matrix" values="0 0 0 0 0.845833 0 0 0 0 0.651737 0 0 0 0 0.0775347 0 0 0 0.31 0"/>
<feBlend mode="normal" in2="BackgroundImageFix" result="effect1_dropShadow_2_2"/>
<feBlend mode="normal" in="SourceGraphic" in2="effect1_dropShadow_2_2" result="shape"/>
</filter>
<filter id="filter4_d_2_2" x="524" y="276" width="95" height="95" filterUnits="userSpaceOnUse" color-interpolation-filters="sRGB">
<feFlood flood-opacity="0" result="BackgroundImageFix"/>
<feColorMatrix in="SourceAlpha" type="matrix" values="0 0 0 0 0 0 0 0 0 0 0 0 0 0 0 0 0 0 127 0" result="hardAlpha"/>
<feOffset dy="12"/>
<feGaussianBlur stdDeviation="10"/>
<feColorMatrix type="matrix" values="0 0 0 0 0.845833 0 0 0 0 0.651737 0 0 0 0 0.0775347 0 0 0 0.31 0"/>
<feBlend mode="normal" in2="BackgroundImageFix" result="effect1_dropShadow_2_2"/>
<feBlend mode="normal" in="SourceGraphic" in2="effect1_dropShadow_2_2" result="shape"/>
</filter>
<filter id="filter5_d_2_2" x="607" y="201" width="95" height="95" filterUnits="userSpaceOnUse" color-interpolation-filters="sRGB">
<feFlood flood-opacity="0" result="BackgroundImageFix"/>
<feColorMatrix in="SourceAlpha" type="matrix" values="0 0 0 0 0 0 0 0 0 0 0 0 0 0 0 0 0 0 127 0" result="hardAlpha"/>
<feOffset dy="12"/>
<feGaussianBlur stdDeviation="10"/>
<feColorMatrix type="matrix" values="0 0 0 0 0.845833 0 0 0 0 0.651737 0 0 0 0 0.0775347 0 0 0 0.31 0"/>
<feBlend mode="normal" in2="BackgroundImageFix" result="effect1_dropShadow_2_2"/>
<feBlend mode="normal" in="SourceGraphic" in2="effect1_dropShadow_2_2" result="shape"/>
</filter>
<linearGradient id="paint0_linear_2_2" x1="52" y1="74" x2="499.5" y2="339" gradientUnits="userSpaceOnUse">
<stop stop-color="#80D1FF"/>
<stop offset="1" stop-color="#44B2F1"/>
</linearGradient>
<linearGradient id="paint1_linear_2_2" x1="690.5" y1="74" x2="499" y2="413" gradientUnits="userSpaceOnUse">
<stop stop-color="#FFD968"/>
<stop offset="1" stop-color="#FAC422"/>
</linearGradient>
<clipPath id="clip0_2_2">
<rect width="18" height="22" fill="white" transform="translate(562 227)"/>
</clipPath>
<clipPath id="clip1_2_2">
<rect width="24" height="24" fill="white" transform="matrix(-1 -8.74228e-08 -8.74228e-08 1 668 225)"/>
</clipPath>
</defs>
</svg>
