<svg width="60" height="60" viewBox="60 30 60 60" fill="none" xmlns="http://www.w3.org/2000/svg">
<g filter="url(#filter0_d_23_6500)">
<ellipse cx="90" cy="60.5" rx="30" ry="28.5" fill="white"/>
</g>
<rect x="77" y="50" width="25" height="25" rx="2" fill="url(#paint0_linear_23_6500)"/>
<path d="M102 58V51.7895C102 50.6849 101.105 49.7895 100 49.7895H98.9512V47C98.9512 46.4477 98.5035 46 97.9512 46H97.5122C96.9599 46 96.5122 46.4477 96.5122 47V49.7895H82.4878V47C82.4878 46.4477 82.0401 46 81.4878 46H81.0488C80.4965 46 80.0488 46.4477 80.0488 47V49.7895H79C77.8954 49.7895 77 50.6849 77 51.7895V58H102Z" fill="url(#paint1_linear_23_6500)"/>
<rect x="81" y="61" width="3" height="3" fill="white"/>
<rect x="81" y="68" width="3" height="3" fill="white"/>
<rect x="88" y="61" width="3" height="3" fill="white"/>
<rect x="88" y="68" width="3" height="3" fill="white"/>
<rect x="95" y="61" width="3" height="3" fill="white"/>
<rect x="95" y="68" width="3" height="3" fill="white"/>
<defs>
<filter id="filter0_d_23_6500" x="0" y="0" width="180" height="177" filterUnits="userSpaceOnUse" color-interpolation-filters="sRGB">
<feFlood flood-opacity="0" result="BackgroundImageFix"/>
<feOffset dy="28"/>
<feGaussianBlur stdDeviation="30"/>
<feColorMatrix type="matrix" values="0 0 0 0 0.595833 0 0 0 0 0.595833 0 0 0 0 0.595833 0 0 0 0.15 0"/>
<feBlend mode="normal" in2="BackgroundImageFix" result="effect1_dropShadow_23_6500"/>
<feBlend mode="normal" in="SourceGraphic" in2="effect1_dropShadow_23_6500" result="shape"/>
</filter>
<linearGradient id="paint0_linear_23_6500" x1="77" y1="57.5" x2="102" y2="77" gradientUnits="userSpaceOnUse">
<stop stop-color="#8889FF"/>
<stop offset="1" stop-color="#3C3DFF"/>
</linearGradient>
<linearGradient id="paint1_linear_23_6500" x1="77" y1="46" x2="102" y2="58" gradientUnits="userSpaceOnUse">
<stop stop-color="#FFA7A7"/>
<stop offset="1" stop-color="#FF6C6C"/>
</linearGradient>
</defs>
</svg>
