<svg width="14" height="13" viewBox="0 0 14 13" fill="none" xmlns="http://www.w3.org/2000/svg">
<path d="M4.15625 4.78125H11.5664L8.09375 1.80078C7.82031 1.55469 7.79297 1.14453 8.01172 0.871094C8.25781 0.597656 8.66797 0.570312 8.94141 0.789062L13.7539 4.91797C13.8906 5.08203 14 5.24609 14 5.4375C14 5.62891 13.8906 5.82031 13.7539 5.95703L8.94141 10.0859C8.83203 10.1953 8.66797 10.25 8.53125 10.25C8.33984 10.25 8.14844 10.168 8.01172 10.0039C7.79297 9.73047 7.82031 9.32031 8.09375 9.07422L11.5664 6.09375H4.15625C2.57031 6.09375 1.3125 7.35156 1.3125 8.91016V12.1641C1.3125 12.6016 1.01172 12.875 0.65625 12.875C0.273438 12.875 0 12.6016 0 12.2188V8.96484C0 6.66797 1.85938 4.78125 4.15625 4.78125Z" fill="#131231"/>
</svg>
